<svg width="70" height="70" viewBox="0 0 70 70" fill="none" xmlns="http://www.w3.org/2000/svg">
<circle cx="35" cy="35" r="34" fill="#171717" stroke="url(#paint0_linear_243_187)" stroke-width="2"/>
<path d="M25.1 45.9L23.9846 45.2318C23.8354 45.4804 23.7736 45.7717 23.8091 46.0595C23.8445 46.3473 23.9751 46.6149 24.1801 46.8199C24.3851 47.0249 24.6527 47.1555 24.9405 47.1909C25.2283 47.2264 25.5196 47.1646 25.7682 47.0154L25.1 45.9ZM32.9 32.9L32.2318 31.7846L31.9536 31.9536L31.7846 32.2318L32.9 32.9ZM45.9 25.1L47.0154 25.7682C47.1646 25.5196 47.2264 25.2283 47.1909 24.9405C47.1555 24.6527 47.0249 24.3851 46.8199 24.1801C46.6149 23.9751 46.3473 23.8445 46.0595 23.8091C45.7717 23.7736 45.4804 23.8354 45.2318 23.9846L45.9 25.1ZM38.1 38.1L38.7682 39.2154L39.0464 39.0464L39.2154 38.7682L38.1 38.1ZM52.4 35.5C52.4 37.7193 51.9629 39.9169 51.1136 41.9673C50.2643 44.0177 49.0194 45.8808 47.4501 47.4501C45.8808 49.0194 44.0177 50.2643 41.9673 51.1136C39.9169 51.9629 37.7193 52.4 35.5 52.4V55C40.6717 55 45.6316 52.9455 49.2886 49.2886C52.9455 45.6316 55 40.6717 55 35.5H52.4ZM35.5 52.4C31.0178 52.4 26.7193 50.6195 23.5499 47.4501C20.3805 44.2807 18.6 39.9822 18.6 35.5H16C16 40.6717 18.0545 45.6316 21.7114 49.2886C25.3684 52.9455 30.3283 55 35.5 55V52.4ZM18.6 35.5C18.6 31.0178 20.3805 26.7193 23.5499 23.5499C26.7193 20.3805 31.0178 18.6 35.5 18.6V16C30.3283 16 25.3684 18.0545 21.7114 21.7114C18.0545 25.3684 16 30.3283 16 35.5H18.6ZM35.5 18.6C37.7193 18.6 39.9169 19.0371 41.9673 19.8864C44.0177 20.7357 45.8808 21.9806 47.4501 23.5499C49.0194 25.1192 50.2643 26.9822 51.1136 29.0326C51.9629 31.0831 52.4 33.2807 52.4 35.5H55C55 30.3283 52.9455 25.3684 49.2886 21.7114C45.6316 18.0545 40.6717 16 35.5 16V18.6ZM26.2154 46.5682L34.0154 33.5682L31.7846 32.2318L23.9846 45.2318L26.2154 46.5682ZM33.5682 34.018L46.5682 26.218L45.2318 23.9872L32.2318 31.7872L33.5682 34.018ZM44.7846 24.4344L36.9846 37.4344L39.2154 38.7708L47.0154 25.7708L44.7846 24.4344ZM37.4318 36.982L24.4318 44.782L25.7682 47.0128L38.7682 39.2128L37.4318 36.982Z" fill="url(#paint1_linear_243_187)"/>
<defs>
<linearGradient id="paint0_linear_243_187" x1="5.31646" y1="34.9996" x2="63.0498" y2="34.9996" gradientUnits="userSpaceOnUse">
<stop stop-color="#EAAEFF"/>
<stop offset="0.421875" stop-color="#D1ADFF"/>
<stop offset="0.760417" stop-color="#A9D6FF"/>
<stop offset="1" stop-color="white"/>
<stop offset="1" stop-color="white" stop-opacity="0"/>
</linearGradient>
<linearGradient id="paint1_linear_243_187" x1="18.962" y1="35.4998" x2="51.1278" y2="35.4998" gradientUnits="userSpaceOnUse">
<stop stop-color="#EAAEFF"/>
<stop offset="0.421875" stop-color="#D1ADFF"/>
<stop offset="0.760417" stop-color="#A9D6FF"/>
<stop offset="1" stop-color="white"/>
<stop offset="1" stop-color="white" stop-opacity="0"/>
</linearGradient>
</defs>
</svg>
