<svg width="42" height="39" viewBox="0 0 42 39" fill="none" xmlns="http://www.w3.org/2000/svg">
<path d="M10.5832 25.1667H23.1353C23.7255 25.1667 24.2116 24.9667 24.5936 24.5667C24.9755 24.1681 25.1665 23.6736 25.1665 23.0834C25.1665 22.4931 24.9672 21.9979 24.5686 21.5979C24.1686 21.1993 23.6734 21 23.0832 21H10.5311C9.94081 21 9.4547 21.1993 9.07275 21.5979C8.69081 21.9979 8.49984 22.4931 8.49984 23.0834C8.49984 23.6736 8.69914 24.1681 9.09775 24.5667C9.49775 24.9667 9.99289 25.1667 10.5832 25.1667ZM10.5832 18.9167H31.4686C32.0589 18.9167 32.545 18.7167 32.9269 18.3167C33.3089 17.9181 33.4998 17.4236 33.4998 16.8334C33.4998 16.2431 33.2998 15.7479 32.8998 15.3479C32.5012 14.9493 32.0068 14.75 31.4165 14.75H10.5311C9.94081 14.75 9.4547 14.9493 9.07275 15.3479C8.69081 15.7479 8.49984 16.2431 8.49984 16.8334C8.49984 17.4236 8.69914 17.9181 9.09775 18.3167C9.49775 18.7167 9.99289 18.9167 10.5832 18.9167ZM10.5832 12.6667H31.4686C32.0589 12.6667 32.545 12.4674 32.9269 12.0688C33.3089 11.6688 33.4998 11.1736 33.4998 10.5834C33.4998 9.99308 33.2998 9.49794 32.8998 9.09794C32.5012 8.69933 32.0068 8.50002 31.4165 8.50002H10.5311C9.94081 8.50002 9.4547 8.69933 9.07275 9.09794C8.69081 9.49794 8.49984 9.99308 8.49984 10.5834C8.49984 11.1736 8.69914 11.6688 9.09775 12.0688C9.49775 12.4674 9.99289 12.6667 10.5832 12.6667ZM0.166504 36.7813V4.33335C0.166504 3.18752 0.574837 2.20627 1.3915 1.3896C2.20678 0.574326 3.18734 0.166687 4.33317 0.166687H37.6665C38.8123 0.166687 39.7936 0.574326 40.6103 1.3896C41.4255 2.20627 41.8332 3.18752 41.8332 4.33335V29.3334C41.8332 30.4792 41.4255 31.4604 40.6103 32.2771C39.7936 33.0924 38.8123 33.5 37.6665 33.5H8.49984L3.70817 38.2917C3.04845 38.9514 2.29289 39.0986 1.4415 38.7333C0.591504 38.3695 0.166504 37.7188 0.166504 36.7813ZM4.33317 31.7813L6.78109 29.3334H37.6665V4.33335H4.33317V31.7813ZM4.33317 4.33335V31.7813V4.33335Z" fill="url(#paint0_linear_54_244)"/>
<defs>
<linearGradient id="paint0_linear_54_244" x1="3.33106" y1="19.5474" x2="37.6962" y2="19.5474" gradientUnits="userSpaceOnUse">
<stop stop-color="#EAAEFF"/>
<stop offset="0.421875" stop-color="#D1ADFF"/>
<stop offset="0.760417" stop-color="#A9D6FF"/>
<stop offset="1" stop-color="white"/>
<stop offset="1" stop-color="white" stop-opacity="0"/>
</linearGradient>
</defs>
</svg>
