<svg width="623" height="623" viewBox="0 0 623 623" fill="none" xmlns="http://www.w3.org/2000/svg">
<path d="M277.636 434.884C337.192 415.437 375.404 400.706 418.896 400.193C418.896 400.193 480.845 408.174 506.479 400.193C581.433 376.815 587.961 291.676 547.493 228.822C505.59 163.729 430.175 182.305 430.175 182.305C339.91 198.881 279.687 180.596 248.191 165.369C222.95 153.202 192.446 157.73 172.998 177.861C168.618 182.206 165.19 187.414 162.933 193.156C135.231 269.016 167.137 343.149 178.518 388.419C182.722 405.2 218.063 454.332 277.636 434.884Z" stroke="url(#paint0_linear_44_394)" stroke-linecap="round" stroke-linejoin="round" stroke-dasharray="5 5"/>
<path d="M305.218 121.074C302.809 149.476 300.28 178.272 300.912 206.657C302.399 275.424 309.303 343.97 313.678 412.583C316.292 453.478 324.376 496.697 316.138 537.335C308.431 575.427 278.098 606.871 238.365 609.691C194.634 612.801 163.035 571.975 167.803 530.909C171.375 500.149 189.866 471.729 190.959 440.729C192.412 398.997 143.639 404.38 111.938 377.499C74.6325 345.918 37.805 303.929 26.9704 254.986C23.8431 240.921 23.0399 225.934 28.2521 212.416C51.8524 151.373 152.03 136.044 190.959 187.927C231.068 241.417 215.26 319.207 280.9 326.504C346.54 333.801 410.967 305.843 474.18 290.036C537.394 274.228 607.887 313.14 596.95 395.784C586.013 478.428 483.904 476.104 436.498 418.889C389.093 361.674 410.967 245.057 420.691 198.796C426.04 173.435 439.78 150.673 451.827 128.046C461.312 110.205 473.275 91.5777 470.199 70.5066C461.124 8.38699 357.409 -9.18082 325.879 44.4283C325.845 44.4967 309.832 66.5248 305.218 121.074Z" stroke="url(#paint1_linear_44_394)" stroke-linecap="round" stroke-linejoin="round"/>
<path d="M444.086 487.536C483.66 487.536 515.741 455.455 515.741 415.881C515.741 376.307 483.66 344.226 444.086 344.226C404.512 344.226 372.431 376.307 372.431 415.881C372.431 455.455 404.512 487.536 444.086 487.536Z" fill="#F7E1FF" stroke="#263238" stroke-miterlimit="10"/>
<path d="M444.086 344.226C444.086 344.226 407.84 340.295 402.063 358.222C396.287 376.149 420.657 372.97 416.811 381.293C412.966 389.615 396.937 400.45 403.345 412.686C409.754 424.922 421.289 438.32 408.472 433.842C395.655 429.365 392.459 428.066 395.023 442.165C397.586 456.263 411.035 460.108 432.824 458.177C454.613 456.246 452.682 466.517 464.849 467.799C477.017 469.08 489.202 462.022 489.202 444.079C489.202 426.135 474.471 429.997 487.92 421.025C501.369 412.053 498.823 388.983 494.978 381.942C491.133 374.901 483.443 378.097 483.443 369.125C483.443 360.153 464.952 343.03 444.086 344.226Z" fill="#263238" stroke="#263238" stroke-miterlimit="10"/>
<path d="M424.143 352.599C424.143 352.599 410.728 350.805 411.172 359.298C411.616 367.792 434.892 384.351 456.817 384.813C478.743 385.274 480.965 374.064 477.837 371.825" stroke="white" stroke-width="0.75" stroke-linecap="round" stroke-linejoin="round"/>
<path d="M438.019 359.709C438.019 359.709 427.287 361.042 428.62 368.253C429.953 375.465 436.669 378.985 446.974 383.019" stroke="white" stroke-width="0.75" stroke-linecap="round" stroke-linejoin="round"/>
<path d="M491.697 403.543C491.697 403.543 490.808 414.736 476.949 421.897C463.089 429.057 450.597 439.755 462.56 445.155C474.522 450.556 481.358 456.776 476.88 458.126" stroke="white" stroke-width="0.75" stroke-linecap="round" stroke-linejoin="round"/>
<path d="M423.254 436.645C423.254 436.645 417.888 449.171 409.839 446.898C401.79 444.625 399.09 438.354 404.473 438.354C409.856 438.354 410.283 441.037 410.283 441.037" stroke="white" stroke-width="0.75" stroke-linecap="round" stroke-linejoin="round"/>
<path d="M465.977 385.377C465.977 385.377 476.966 385.206 475.171 395.938C473.377 406.67 463.089 407.576 460.406 415.625" stroke="white" stroke-width="0.75" stroke-linecap="round" stroke-linejoin="round"/>
<path d="M444.086 487.605C460.169 487.624 475.786 482.204 488.398 472.224C483.374 468.516 474.419 461.971 469.207 458.553C461.671 453.529 451.622 437.892 438.207 440.678C427.441 442.933 398.628 455.34 387.657 460.159C394.36 468.72 402.926 475.64 412.703 480.396C422.481 485.152 433.213 487.617 444.086 487.605Z" fill="white" stroke="#263238" stroke-miterlimit="10"/>
<path d="M436.02 438.319C436.02 438.319 416.162 444.078 413.599 460.741C411.035 477.403 429.936 465.389 429.936 465.389C429.936 465.389 439.865 479.966 448.837 475.489C457.809 471.011 459.09 455.614 453.964 445.36C448.837 435.107 436.02 438.319 436.02 438.319Z" fill="white" stroke="#263238" stroke-miterlimit="10"/>
<path d="M435.49 426.084C435.595 431.543 434.851 436.985 433.286 442.216C430.773 449.957 422.588 460.621 429.868 465.406C437.148 470.191 446.479 454.965 448.905 442.182C451.332 429.399 453.092 414.121 453.092 414.121L435.49 426.084Z" fill="white"/>
<g style="mix-blend-mode:multiply" opacity="0.5">
<path d="M433.798 440.507C436.145 441.357 438.582 441.93 441.061 442.216C443.283 442.472 444.171 441.994 444.479 441.43C444.206 444.626 443.163 453.393 439.523 459.852C438.412 461.835 437.507 463.509 436.789 464.979C442.189 461.339 447.23 451.188 448.939 442.233C451.366 429.468 453.058 414.224 453.058 414.224L435.456 426.186C435.541 431.012 434.983 435.828 433.798 440.507Z" fill="#B57AFF"/>
</g>
<path d="M435.49 426.084C435.595 431.543 434.851 436.985 433.286 442.216C430.773 449.957 422.588 460.621 429.868 465.406C437.148 470.191 446.479 454.965 448.905 442.182C451.332 429.399 453.092 414.121 453.092 414.121L435.49 426.084Z" stroke="#263238" stroke-miterlimit="10"/>
<path d="M424.741 376.525C424.741 376.525 418.589 402.159 418.589 411.712C418.589 421.264 427.373 432.954 438.515 433.928C452.733 435.073 457.962 415.967 461.039 405.081C463.704 395.63 465.516 387.462 465.96 385.445C444.342 393.614 424.741 376.525 424.741 376.525Z" fill="white"/>
<g style="mix-blend-mode:multiply" opacity="0.5">
<path d="M465.977 385.377C463.828 386.198 461.601 386.799 459.33 387.171C458.321 393.682 455.228 409.695 448.136 419.538C442.121 427.895 435.678 430.92 432.021 432.013C434.057 433.029 436.266 433.655 438.532 433.859C452.75 435.004 457.98 415.898 461.056 405.012" fill="#B57AFF"/>
</g>
<path d="M424.741 376.525C424.741 376.525 418.589 402.159 418.589 411.712C418.589 421.264 427.373 432.954 438.515 433.928C452.733 435.073 457.962 415.967 461.039 405.081C463.704 395.63 465.516 387.462 465.96 385.445C444.342 393.614 424.741 376.525 424.741 376.525Z" stroke="#263238" stroke-miterlimit="10"/>
<path d="M436.464 394.673C435.682 397.462 434.452 400.105 432.824 402.5C430.602 405.286 425.852 402.774 427.253 404.448C428.028 405.429 428.997 406.24 430.1 406.828C431.203 407.416 432.415 407.77 433.661 407.866" stroke="#263238" stroke-linecap="round" stroke-linejoin="round"/>
<path d="M425.715 413.164C425.715 413.164 429.902 419.316 438.549 416.24" stroke="#263238" stroke-linecap="round" stroke-linejoin="round"/>
<path d="M432.397 392.691C432.141 394.212 431.252 395.34 430.415 395.186C429.577 395.032 429.099 393.699 429.355 392.179C429.611 390.658 430.5 389.547 431.337 389.683C432.175 389.82 432.653 391.17 432.397 392.691Z" fill="#263238"/>
<path d="M446.478 396.707C446.102 398.211 445.145 399.27 444.325 399.065C443.505 398.86 443.129 397.493 443.488 395.989C443.847 394.485 444.804 393.443 445.641 393.631C446.478 393.819 446.837 395.22 446.478 396.707Z" fill="#263238"/>
<path d="M426.672 385.172C426.672 385.172 428.911 379.874 435.61 382.95" stroke="#263238" stroke-linecap="round" stroke-linejoin="round"/>
<path d="M443.402 387.445C443.402 387.445 449.555 385.497 451.229 391.632" stroke="#263238" stroke-linecap="round" stroke-linejoin="round"/>
<path d="M194.651 487.536C234.225 487.536 266.306 455.455 266.306 415.881C266.306 376.307 234.225 344.226 194.651 344.226C155.076 344.226 122.995 376.307 122.995 415.881C122.995 455.455 155.076 487.536 194.651 487.536Z" fill="#F7E1FF" stroke="#263238" stroke-miterlimit="10"/>
<path d="M149.825 471.712C163.877 483.032 181.686 488.628 199.688 487.379C217.689 486.131 234.555 478.13 246.91 464.979C238.843 454.588 222.318 436.781 203.93 436.781C183.525 436.781 159.293 461.134 149.825 471.712Z" fill="white" stroke="#263238" stroke-miterlimit="10"/>
<path d="M186.721 431.484C186.721 431.484 174.571 432.868 173.528 442.25C172.486 451.632 179.766 467.252 180.466 468.978C181.167 470.704 196.787 455.101 202.683 455.101C208.578 455.101 223.856 463.424 223.856 463.424C223.856 463.424 219.003 443.976 210.321 436.679C201.64 429.382 189.131 428.698 186.721 431.484Z" fill="white" stroke="#263238" stroke-miterlimit="10"/>
<path opacity="0.5" d="M170.743 397.032C170.743 397.032 165.53 391.82 162.762 395.989C159.993 400.159 162.403 405.013 166.18 408.14C169.956 411.267 175.904 411.558 175.904 409.182C175.904 406.807 170.743 397.032 170.743 397.032Z" fill="#92E3A9" stroke="#263238" stroke-miterlimit="10"/>
<path d="M170.743 397.032C170.743 397.032 165.53 391.82 162.762 395.989C159.993 400.159 162.403 405.013 166.18 408.14C169.956 411.267 175.904 411.558 175.904 409.182C175.904 406.807 170.743 397.032 170.743 397.032Z" fill="#B57AFF" stroke="#263238" stroke-miterlimit="10"/>
<path d="M215.551 384.949C215.551 384.949 217.977 378.695 221.447 385.291C224.916 391.888 218.319 397.783 218.319 397.783L215.551 384.949Z" fill="white" stroke="#263238" stroke-miterlimit="10"/>
<path d="M175.955 409.25C175.955 409.25 182.893 434.252 184.636 442.933C186.379 451.615 194.36 464.124 200.256 460.023C206.152 455.921 205.827 448.214 202.341 441.618C200.046 437.058 198.186 432.291 196.787 427.382L175.955 409.25Z" fill="white"/>
<g style="mix-blend-mode:multiply" opacity="0.5">
<path d="M202.341 441.549C200.046 436.989 198.186 432.223 196.787 427.314L175.955 409.25C175.955 409.25 181.646 429.758 184.004 440.011C187.016 442.364 190.441 444.131 194.104 445.223C197.27 446.089 200.647 445.704 203.537 444.147C203.193 443.257 202.794 442.389 202.341 441.549Z" fill="#B57AFF"/>
</g>
<path d="M175.955 409.25C175.955 409.25 182.893 434.252 184.636 442.933C186.379 451.615 194.36 464.124 200.256 460.023C206.152 455.921 205.827 448.214 202.341 441.618C200.046 437.058 198.186 432.291 196.787 427.382L175.955 409.25Z" stroke="#263238" stroke-miterlimit="10"/>
<path d="M163.497 383.206C163.497 383.206 179.817 422.512 186.772 431.484C193.728 440.456 212.406 441.208 220.455 428.066C228.504 414.924 219.413 397.168 218.029 389.171C216.645 381.173 212.902 367.997 215.243 365.57C217.584 363.144 227.394 361.4 223.583 355.146C219.772 348.891 214.201 352.018 213.517 347.507C212.834 342.995 216.286 331.87 203.434 330.144C190.583 328.418 168.008 343.679 159.002 355.488C149.996 367.296 147.125 377.994 163.497 383.206Z" fill="#263238" stroke="#263238" stroke-miterlimit="10"/>
<path d="M168.624 371.398C168.624 371.398 157.926 370.594 163.292 360.307C168.658 350.019 204.46 336.159 204.904 343.764C205.348 351.369 197.299 353.608 197.299 353.608" stroke="white" stroke-width="0.75" stroke-linecap="round" stroke-linejoin="round"/>
<path d="M183.013 361.657C183.013 361.657 174.964 359.863 177.647 354.052C180.33 348.242 200.017 345.508 196.445 349.131C194.327 351.253 191.916 353.06 189.284 354.497" stroke="white" stroke-width="0.75" stroke-linecap="round" stroke-linejoin="round"/>
<path d="M208.937 406.824C208.937 406.824 203.041 416.189 193.659 411.677" stroke="white" stroke-width="0.75" stroke-linecap="round" stroke-linejoin="round"/>
<path d="M217.977 389.102C216.679 381.634 213.244 369.586 214.799 366.083C213.756 363.571 210.168 357.709 199.572 357.162C186.02 356.462 171.443 364.1 168.658 371.398C165.872 378.695 172.486 374.815 174.912 380.079C177.339 385.342 171.084 391.546 172.486 395.357C173.887 399.168 180.466 414.155 180.466 414.155C181.509 409.985 197.146 403.03 197.146 403.03C199.407 403.627 201.749 403.864 204.084 403.731C207.211 403.389 205.468 400.603 205.468 400.603L221.481 401.56C220.114 396.519 218.49 392.127 217.977 389.102Z" fill="white"/>
<g style="mix-blend-mode:multiply" opacity="0.5">
<path d="M180.996 374.183C180.347 367.347 175.869 365.997 172.896 365.878C171.05 367.348 169.584 369.242 168.624 371.398C165.855 378.695 172.452 374.815 174.878 380.079C177.305 385.342 171.05 391.546 172.452 395.357C173.853 399.168 180.432 414.155 180.432 414.155C180.774 412.822 182.586 411.199 184.91 409.626C181.492 404.756 177.322 398.826 174.964 395.391C170.52 388.812 182.004 384.778 180.996 374.183Z" fill="#B57AFF"/>
</g>
<path d="M217.977 389.102C216.679 381.634 213.244 369.586 214.799 366.083C213.756 363.571 210.168 357.709 199.572 357.162C186.02 356.462 171.443 364.1 168.658 371.398C165.872 378.695 172.486 374.815 174.912 380.079C177.339 385.342 171.084 391.546 172.486 395.357C173.887 399.168 180.466 414.155 180.466 414.155C181.509 409.985 197.146 403.03 197.146 403.03C199.407 403.627 201.749 403.864 204.084 403.731C207.211 403.389 205.468 400.603 205.468 400.603L221.481 401.56C220.114 396.519 218.49 392.127 217.977 389.102Z" stroke="#263238" stroke-miterlimit="10"/>
<path d="M188.55 387.428C188.994 389.359 188.55 391.119 187.678 391.324C186.806 391.529 185.644 390.128 185.217 388.179C184.79 386.231 185.217 384.488 186.089 384.283C186.96 384.078 188.122 385.479 188.55 387.428Z" fill="#263238"/>
<path d="M209.228 383.172C209.672 385.12 209.228 386.863 208.356 387.068C207.485 387.273 206.322 385.872 205.878 383.924C205.434 381.976 205.878 380.233 206.767 380.027C207.655 379.822 208.783 381.224 209.228 383.172Z" fill="#263238"/>
<path d="M180.466 378.336C180.466 378.336 181.851 370.697 189.848 373.825" stroke="#263238" stroke-linecap="round" stroke-linejoin="round"/>
<path d="M211.347 370.355C205.434 366.527 203.349 372.064 203.349 372.064C203.349 372.064 199.606 376.165 201.127 383.736" stroke="#263238" stroke-linecap="round" stroke-linejoin="round"/>
<path d="M181.509 398.826L191.575 394.673" stroke="#263238" stroke-width="0.5" stroke-linecap="round" stroke-linejoin="round"/>
<path d="M205.827 391.546L214.149 390.845" stroke="#263238" stroke-width="0.5" stroke-linecap="round" stroke-linejoin="round"/>
<path d="M460.843 262.418C499.319 253.159 523.004 214.463 513.746 175.987C504.487 137.511 465.791 113.825 427.315 123.084C388.839 132.343 365.154 171.039 374.412 209.515C383.671 247.991 422.367 271.676 460.843 262.418Z" fill="#F7E1FF" stroke="#263238" stroke-miterlimit="10"/>
<path d="M505.284 178.487C514.937 152.462 500.797 123.217 473.701 113.167C446.605 103.117 416.814 116.068 407.161 142.093C397.508 168.118 411.649 197.363 438.745 207.413C465.841 217.463 495.631 204.512 505.284 178.487Z" fill="#263238" stroke="#263238" stroke-miterlimit="10"/>
<path d="M504.907 150.331C507.276 158.798 507.122 167.772 504.462 176.153" stroke="white" stroke-width="0.75" stroke-linecap="round" stroke-linejoin="round"/>
<path d="M501.284 182.937C501.284 182.937 498.105 187.022 496.294 189.294" stroke="white" stroke-width="0.75" stroke-linecap="round" stroke-linejoin="round"/>
<path d="M426.98 128.576C426.98 128.576 419.734 137.121 424.262 147.614" stroke="white" stroke-width="0.75" stroke-linecap="round" stroke-linejoin="round"/>
<path d="M444.086 264.419C457.29 264.442 470.241 260.798 481.494 253.892C473.138 246.185 451.383 226.993 441.129 226.156C430.397 225.284 399.073 235.316 389.041 238.648C395.761 246.723 404.176 253.218 413.69 257.672C423.203 262.126 433.581 264.429 444.086 264.419Z" fill="white" stroke="#263238" stroke-miterlimit="10"/>
<path d="M454.664 235.196C454.955 234.341 455.211 233.487 455.484 232.786C449.982 229.129 444.804 226.463 441.129 226.156C436.669 226.11 432.219 226.621 427.885 227.677C425.988 232.803 425.493 237.93 423.955 246.663C421.87 258.472 424.997 261.941 433.678 257.429C442.36 252.918 451.195 245.603 454.664 235.196Z" fill="white" stroke="#263238" stroke-miterlimit="10"/>
<path d="M433.832 213.305C433.832 213.305 435.917 217.133 433.49 226.156C431.064 235.179 424.946 250.081 427.783 252.918C430.619 255.754 447.726 242.835 448.409 233.111C449.093 223.387 449.11 203.94 449.11 203.94L433.832 213.305Z" fill="white"/>
<g style="mix-blend-mode:multiply" opacity="0.5">
<path d="M434.635 219.149L445.607 227.694L444.769 241.365C446.714 238.992 447.973 236.131 448.409 233.094C449.11 223.37 449.11 203.923 449.11 203.923L433.832 213.288C434.575 215.146 434.851 217.159 434.635 219.149Z" fill="#B57AFF"/>
</g>
<path d="M433.832 213.305C433.832 213.305 435.917 217.133 433.49 226.156C431.064 235.179 424.946 250.081 427.783 252.918C430.619 255.754 447.726 242.835 448.409 233.111C449.093 223.387 449.11 203.94 449.11 203.94L433.832 213.305Z" stroke="#263238" stroke-miterlimit="10"/>
<path d="M416.418 170.599C416.418 170.599 413.992 164.344 410.864 168.89C407.737 173.436 411.548 178.956 413.291 178.956C415.034 178.956 416.418 170.599 416.418 170.599Z" fill="white" stroke="#263238" stroke-miterlimit="10"/>
<path d="M424.45 150.451C424.45 150.451 414.385 170.24 411.958 183.792C409.531 197.344 419.597 217.817 429.663 217.817C439.728 217.817 455.297 202.197 455.297 202.197C455.297 202.197 469.874 202.539 471.959 197.686C474.043 192.832 471.617 189.004 467.789 189.004H460.15C460.15 189.004 458.065 190.047 459.107 180.323C460.15 170.599 463.277 166.087 463.277 166.087C463.277 166.087 436.926 168.155 424.45 150.451Z" fill="white"/>
<g style="mix-blend-mode:multiply" opacity="0.5">
<path d="M451.144 195.925C449.032 201.298 445.557 206.028 441.063 209.65C436.568 213.273 431.208 215.663 425.51 216.586H425.407C426.721 217.353 428.21 217.771 429.731 217.799C439.796 217.799 455.365 202.18 455.365 202.18C455.365 202.18 469.942 202.522 472.027 197.668C474.112 192.815 471.685 188.987 467.857 188.987H460.218C460.218 188.987 458.133 190.029 459.176 180.305C460.218 170.582 463.345 166.07 463.345 166.07C463.345 166.07 461.637 166.19 458.817 166.07H458.697" fill="#B57AFF"/>
</g>
<path d="M424.45 150.451C424.45 150.451 414.385 170.24 411.958 183.792C409.531 197.344 419.597 217.817 429.663 217.817C439.728 217.817 455.297 202.197 455.297 202.197C455.297 202.197 469.874 202.539 471.959 197.686C474.043 192.832 471.617 189.004 467.789 189.004H460.15C460.15 189.004 458.065 190.047 459.107 180.323C460.15 170.599 463.277 166.087 463.277 166.087C463.277 166.087 436.926 168.155 424.45 150.451Z" stroke="#263238" stroke-miterlimit="10"/>
<path d="M426.296 172.598C425.886 174.41 425.031 175.76 424.399 175.623C423.767 175.486 423.596 173.914 424.006 172.068C424.416 170.223 425.27 168.907 425.903 169.044C426.535 169.18 426.672 170.77 426.296 172.598Z" fill="#263238"/>
<path d="M442.616 179.878C442.206 181.689 441.352 183.057 440.719 182.903C440.087 182.749 439.916 181.194 440.326 179.365C440.736 177.537 441.591 176.187 442.223 176.341C442.855 176.494 443.026 178.067 442.616 179.878Z" fill="#263238"/>
<path d="M428.962 177.195C428.962 177.195 421.323 182.749 422.365 184.133C425.216 186.585 428.72 188.153 432.448 188.645C435.575 188.645 434.875 184.834 434.875 184.834" stroke="#263238" stroke-linecap="round" stroke-linejoin="round"/>
<path d="M423.408 193.174C427.227 195.255 431.597 196.103 435.917 195.6C437.7 195.426 439.416 194.831 440.925 193.866C442.434 192.9 443.693 191.592 444.599 190.046" stroke="#263238" stroke-linecap="round" stroke-linejoin="round"/>
<path d="M424.109 164.344C424.109 164.344 426.193 159.833 430.363 165.045" stroke="#263238" stroke-linecap="round" stroke-linejoin="round"/>
<path d="M441.813 170.598C441.813 170.598 448.768 168.514 448.768 175.452" stroke="#263238" stroke-linecap="round" stroke-linejoin="round"/>
<path d="M206.283 263.475C245.332 257.052 271.782 220.19 265.359 181.14C258.936 142.091 222.074 115.641 183.024 122.064C143.975 128.487 117.526 165.349 123.948 204.399C130.371 243.448 167.233 269.898 206.283 263.475Z" fill="#F7E1FF" stroke="#263238" stroke-miterlimit="10"/>
<path d="M145.348 229.112C144.117 234.017 138.512 233.333 140.221 239.366C151.671 252.77 167.662 261.48 185.134 263.829C202.605 266.178 220.329 262.001 234.913 252.097C240.04 246.031 243.116 239.656 243.252 234.53C243.714 218.876 227.171 207.187 226.283 199.65C225.394 192.114 232.537 175.076 232.537 175.076C232.537 175.076 245.047 173.282 249.524 162.122C254.002 150.963 236.981 125.859 221.771 118.254C206.562 110.649 181.099 117.365 168.589 135.685C156.08 154.005 171.272 170.103 163.223 178.596C155.174 187.09 134.171 187.534 131.933 204.521C129.694 221.508 146.681 223.746 145.348 229.112Z" fill="#263238" stroke="#263238" stroke-miterlimit="10"/>
<path d="M221.823 135.292C221.823 135.292 226.351 146.383 208.715 152.928C191.079 159.473 177.476 155.953 172.93 167.54C168.384 179.126 171.922 187.209 172.434 193.173C172.947 199.138 158.763 198.198 150.218 205.768C141.674 213.339 158.763 222.396 163.326 227.437C167.889 232.479 166.846 240.032 158.78 242.562" stroke="white" stroke-width="0.75" stroke-linecap="round" stroke-linejoin="round"/>
<path d="M168.401 158.482C168.401 158.482 174.947 142.35 185.029 139.821C195.112 137.291 206.203 144.862 213.756 137.804C221.31 130.746 219.806 125.722 214.252 121.689" stroke="white" stroke-width="0.75" stroke-linecap="round" stroke-linejoin="round"/>
<path d="M229.376 141.837C229.376 141.837 247.029 153.441 240.98 162.515C234.93 171.59 232.913 160.499 232.913 160.499" stroke="white" stroke-width="0.75" stroke-linecap="round" stroke-linejoin="round"/>
<path d="M155.789 252.952C169.175 261.603 185.065 265.541 200.941 264.142C216.818 262.742 231.774 256.086 243.44 245.227C238.164 240.381 232.569 235.893 226.693 231.795C215.517 224.191 206.579 221.542 200.324 221.952C200.324 221.952 195.402 224.191 186.02 233.128C179.902 238.956 165.206 247.62 155.789 252.952Z" fill="white" stroke="#263238" stroke-miterlimit="10"/>
<path d="M216.85 234.239C216.855 231.265 216.429 228.307 215.585 225.455C210.852 223.09 205.614 221.916 200.324 222.037C200.324 222.037 196.411 223.746 188.943 230.582C188.785 231.846 188.705 233.119 188.703 234.393C188.703 246.133 194.992 255.635 202.768 255.635C210.544 255.635 216.85 245.979 216.85 234.239Z" fill="white" stroke="#263238" stroke-miterlimit="10"/>
<path d="M196.735 199.155C196.735 199.155 196.735 211.681 195.402 223.302C194.069 234.923 195.847 247.432 204.34 248.321C212.834 249.209 211.483 229.112 210.595 221.063C210.067 216.013 210.067 210.921 210.595 205.871L196.735 199.155Z" fill="white"/>
<g style="mix-blend-mode:multiply" opacity="0.5">
<path d="M195.146 226.002L210.236 211.374C210.236 210.912 210.236 210.468 210.236 210.058L207.16 204.333L196.684 199.206C196.684 199.206 196.684 211.732 195.351 223.353C195.3 224.191 195.214 225.096 195.146 226.002Z" fill="#DABCFF"/>
</g>
<path d="M196.735 199.155C196.735 199.155 196.735 211.681 195.402 223.302C194.069 234.923 195.847 247.432 204.34 248.321C212.834 249.209 211.483 229.112 210.595 221.063C210.067 216.013 210.067 210.921 210.595 205.871L196.735 199.155Z" stroke="#263238" stroke-miterlimit="10"/>
<path d="M227.137 143.29C227.137 143.29 228.026 149.1 212.834 156.261C197.641 163.421 190.036 169.214 188.703 175.914C187.371 182.613 186.909 185.313 186.909 185.313C186.909 185.313 183.782 179.041 177.971 182.168C172.161 185.296 177.527 197.378 182.893 197.822C188.259 198.266 189.592 196.472 189.592 196.472C189.592 196.472 207.023 213.903 217.294 213.903C227.565 213.903 231.598 204.077 233.836 186.56C236.007 169.744 227.137 143.29 227.137 143.29Z" fill="white"/>
<g style="mix-blend-mode:multiply" opacity="0.5">
<path d="M193.591 179.143C194.133 173.514 196.136 168.124 199.401 163.506C193.027 167.676 189.558 171.607 188.703 175.913C187.353 182.629 186.909 185.312 186.909 185.312C186.909 185.312 183.782 179.041 177.971 182.168C172.161 185.295 177.527 197.377 182.893 197.822C188.259 198.266 189.592 196.472 189.592 196.472C189.592 196.472 207.023 213.903 217.294 213.903C214.245 212.387 211.378 210.53 208.749 208.366C202.665 203.923 193.095 190.251 193.591 179.143Z" fill="#B57AFF"/>
</g>
<path d="M227.137 143.29C227.137 143.29 228.026 149.1 212.834 156.261C197.641 163.421 190.036 169.214 188.703 175.914C187.371 182.613 186.909 185.313 186.909 185.313C186.909 185.313 183.782 179.041 177.971 182.168C172.161 185.296 177.527 197.378 182.893 197.822C188.259 198.266 189.592 196.472 189.592 196.472C189.592 196.472 207.023 213.903 217.294 213.903C227.565 213.903 231.598 204.077 233.836 186.56C236.007 169.744 227.137 143.29 227.137 143.29Z" stroke="#263238" stroke-miterlimit="10"/>
<path d="M224.044 170.41C223.537 171.796 223.326 173.272 223.426 174.744C223.527 176.216 223.935 177.651 224.625 178.955C226.966 183.347 228.146 184.8 227.274 185.979C227.024 186.384 226.697 186.736 226.31 187.015C225.924 187.294 225.487 187.493 225.023 187.603C224.56 187.712 224.079 187.73 223.609 187.653C223.139 187.577 222.689 187.409 222.284 187.158" stroke="#263238" stroke-linecap="round" stroke-linejoin="round"/>
<path d="M222.284 197.668C222.284 197.668 213.739 200.898 210.851 194.729" stroke="#263238" stroke-linecap="round" stroke-linejoin="round"/>
<path d="M213.791 177.007C213.791 178.87 213.261 180.425 212.611 180.425C211.962 180.425 211.449 178.921 211.449 177.007C211.449 175.093 211.962 173.589 212.611 173.589C213.261 173.589 213.791 175.144 213.791 177.007Z" fill="#263238"/>
<path d="M228.146 176.563C228.797 176.563 229.325 175.056 229.325 173.196C229.325 171.337 228.797 169.83 228.146 169.83C227.494 169.83 226.966 171.337 226.966 173.196C226.966 175.056 227.494 176.563 228.146 176.563Z" fill="#263238"/>
<path d="M205.297 167.198C205.297 167.198 207.006 162.498 214.081 163.387" stroke="#263238" stroke-linecap="round" stroke-linejoin="round"/>
<path d="M224.335 162.498C224.335 162.498 226.385 157.525 230.777 161.627" stroke="#263238" stroke-linecap="round" stroke-linejoin="round"/>
<defs>
<linearGradient id="paint0_linear_44_394" x1="183.832" y1="299.014" x2="530.407" y2="299.014" gradientUnits="userSpaceOnUse">
<stop stop-color="#EAAEFF"/>
<stop offset="0.421875" stop-color="#D1ADFF"/>
<stop offset="0.760417" stop-color="#A9D6FF"/>
<stop offset="1" stop-color="white"/>
<stop offset="1" stop-color="white" stop-opacity="0"/>
</linearGradient>
<linearGradient id="paint1_linear_44_394" x1="68.0458" y1="311.2" x2="541.129" y2="311.2" gradientUnits="userSpaceOnUse">
<stop stop-color="#EAAEFF"/>
<stop offset="0.421875" stop-color="#D1ADFF"/>
<stop offset="0.760417" stop-color="#A9D6FF"/>
<stop offset="1" stop-color="white"/>
<stop offset="1" stop-color="white" stop-opacity="0"/>
</linearGradient>
</defs>
</svg>
