<svg width="40" height="32" viewBox="0 0 40 32" fill="none" xmlns="http://www.w3.org/2000/svg">
<path d="M4.66683 31.3332C3.61266 31.3332 2.71055 30.9581 1.9605 30.2081C1.20916 29.4568 0.833496 28.554 0.833496 27.4998V4.49984C0.833496 3.44567 1.20916 2.54356 1.9605 1.7935C2.71055 1.04217 3.61266 0.666504 4.66683 0.666504H35.3335C36.3877 0.666504 37.2904 1.04217 38.0417 1.7935C38.7918 2.54356 39.1668 3.44567 39.1668 4.49984V27.4998C39.1668 28.554 38.7918 29.4568 38.0417 30.2081C37.2904 30.9581 36.3877 31.3332 35.3335 31.3332H4.66683ZM35.3335 8.33317L21.0064 17.2936C20.8467 17.3894 20.6787 17.461 20.5023 17.5083C20.3273 17.5568 20.1599 17.5811 20.0002 17.5811C19.8404 17.5811 19.673 17.5568 19.498 17.5083C19.3217 17.461 19.1536 17.3894 18.9939 17.2936L4.66683 8.33317V27.4998H35.3335V8.33317ZM20.0002 14.0832L35.3335 4.49984H4.66683L20.0002 14.0832ZM4.66683 8.33317V8.81234V5.98525V6.03317V4.49984V6.03317V6.00825V8.81234V8.33317V27.4998V8.33317Z" fill="url(#paint0_linear_54_633)"/>
<defs>
<linearGradient id="paint0_linear_54_633" x1="3.74489" y1="15.9997" x2="35.3608" y2="15.9997" gradientUnits="userSpaceOnUse">
<stop stop-color="#EAAEFF"/>
<stop offset="0.421875" stop-color="#D1ADFF"/>
<stop offset="0.760417" stop-color="#A9D6FF"/>
<stop offset="1" stop-color="white"/>
<stop offset="1" stop-color="white" stop-opacity="0"/>
</linearGradient>
</defs>
</svg>
