<svg width="47" height="47" viewBox="0 0 47 47" fill="none" xmlns="http://www.w3.org/2000/svg">
<path fill-rule="evenodd" clip-rule="evenodd" d="M0 23.6312C0 35.3146 8.48546 45.0299 19.5833 47V30.0271H13.7083V23.5H19.5833V18.2771C19.5833 12.4021 23.3688 9.13954 28.7229 9.13954C30.4188 9.13954 32.2479 9.4 33.9438 9.66046V15.6667H30.9417C28.0688 15.6667 27.4167 17.1021 27.4167 18.9312V23.5H33.6833L32.6395 30.0271H27.4167V47C38.5145 45.0299 47 35.3166 47 23.6312C47 10.6338 36.425 0 23.5 0C10.575 0 0 10.6338 0 23.6312Z" fill="url(#paint0_linear_46_518)"/>
<defs>
<linearGradient id="paint0_linear_46_518" x1="3.56962" y1="23.4997" x2="42.3335" y2="23.4997" gradientUnits="userSpaceOnUse">
<stop stop-color="#EAAEFF"/>
<stop offset="0.421875" stop-color="#D1ADFF"/>
<stop offset="0.760417" stop-color="#A9D6FF"/>
<stop offset="1" stop-color="white"/>
<stop offset="1" stop-color="white" stop-opacity="0"/>
</linearGradient>
</defs>
</svg>
