<svg width="70" height="70" viewBox="0 0 70 70" fill="none" xmlns="http://www.w3.org/2000/svg">
<circle cx="35" cy="35" r="34" fill="#171717" stroke="url(#paint0_linear_243_185)" stroke-width="2"/>
<path fill-rule="evenodd" clip-rule="evenodd" d="M34.5 17.6981C24.6606 17.6981 16.6949 25.6233 16.6949 35.383C16.6949 42.5492 20.9897 48.7161 27.1712 51.49C27.818 51.7809 28.4501 51.6655 28.9441 51.295C29.2173 51.0822 29.4375 50.8091 29.5875 50.497C29.7375 50.1849 29.8132 49.8424 29.8086 49.4961V48.5699L27.6035 48.2709C27.5872 48.2687 27.5709 48.266 27.5547 48.2627C26.3392 48.0255 25.5186 47.5981 24.9174 46.9822C24.412 46.4639 24.1032 45.8431 23.8416 45.3166L23.7506 45.133C23.5088 44.6286 23.2448 44.1352 22.9592 43.6542C22.7399 43.3065 22.5692 43.1277 22.4002 43.0156C21.9713 42.7312 21.5585 42.2486 21.5585 41.6457C21.557 41.4722 21.5942 41.3006 21.6673 41.1432C21.7403 40.9858 21.8475 40.8466 21.981 40.7357C22.233 40.5363 22.547 40.4316 22.8682 40.44C23.229 40.44 23.5686 40.5505 23.8514 40.6772C24.1406 40.8072 24.4283 40.9795 24.6964 41.1582C25.3496 41.5937 25.9931 42.1089 26.5375 42.7442C27.1046 43.404 27.506 43.8232 28.1105 43.9094C28.6077 43.9809 29.1147 43.9825 29.5096 43.9646C29.5645 43.652 29.655 43.3467 29.7794 43.0546C29.2971 42.9421 28.8213 42.8032 28.3543 42.6386C27.2915 42.2616 26.1069 41.675 25.3106 40.7861C24.4364 39.8079 23.8953 38.9352 23.593 37.9147C23.2989 36.9202 23.2501 35.8429 23.2501 34.5169C23.2501 32.4856 24.1293 30.7745 24.789 29.8661C24.5355 29.0708 24.3533 28.2546 24.2446 27.427C24.1726 26.9051 24.1732 26.3757 24.2463 25.854C24.3275 25.3779 24.5306 24.7929 25.0652 24.4402C25.5804 24.0974 26.1849 24.112 26.6561 24.1997C27.1452 24.2924 27.6539 24.4955 28.1219 24.7279C28.884 25.1049 29.6413 25.6086 30.2084 26.036C31.1866 25.7484 32.9172 25.3779 34.4821 25.3437H34.5179C36.0844 25.3779 37.737 25.7484 38.6909 26.0344C39.2596 25.6086 40.0153 25.1032 40.7758 24.7279C41.2438 24.4955 41.7507 24.2924 42.2415 24.1997C42.7127 24.112 43.3172 24.0974 43.834 24.4386C44.367 24.7929 44.5717 25.3779 44.6514 25.854C44.7342 26.3496 44.7148 26.9037 44.6514 27.427C44.5431 28.2545 44.3615 29.0708 44.1086 29.8661C44.7684 30.7761 45.6475 32.4872 45.6475 34.5169C45.6475 35.8429 45.5987 36.9202 45.3062 37.9131C45.0024 38.9369 44.4612 39.8079 43.587 40.7861C42.7907 41.675 41.6061 42.2616 40.5434 42.6386C39.9792 42.8369 39.4028 42.9981 38.8176 43.1212C39.0175 43.7257 39.089 44.2149 39.089 44.496V49.5172C39.089 50.281 39.4449 50.9326 39.9503 51.3129C40.441 51.685 41.0715 51.8004 41.7182 51.5176C47.9582 48.7681 52.3035 42.585 52.3035 35.3814C52.3035 25.6232 44.341 17.6981 34.5 17.6981ZM30.3985 45.5912C29.976 45.6514 30.3969 45.5912 30.3969 45.5912H30.392L30.379 45.5945L30.3319 45.601C30.0905 45.6294 29.8482 45.6494 29.6055 45.6611C29.0272 45.6913 28.4473 45.6679 27.8733 45.5912C26.5879 45.4092 25.8063 44.4992 25.3009 43.9077L25.2521 43.8525C25.0869 43.6608 24.9094 43.4801 24.7207 43.3114C24.8881 43.6201 25.062 43.9646 25.2489 44.3351L25.2651 44.3676L25.348 44.5366C25.6324 45.1021 25.8193 45.4791 26.1296 45.7944C26.4319 46.1031 26.9031 46.4021 27.8554 46.5906L30.7706 46.9855C30.9742 47.0131 31.1609 47.1136 31.296 47.2684C31.4311 47.4232 31.5054 47.6218 31.5051 47.8272V49.4961C31.5051 50.7961 30.8958 51.9548 29.9614 52.6567C29.4708 53.0316 28.8872 53.2654 28.2735 53.333C27.6599 53.4006 27.0394 53.2994 26.479 53.0402C19.7157 50.0064 15 43.2512 15 35.383C15 24.671 23.7376 16 34.5 16C45.2624 16 54 24.671 54 35.383C54 43.2919 49.2241 50.0649 42.4024 53.0727C41.8415 53.3269 41.2221 53.4239 40.6105 53.3532C39.9988 53.2825 39.4178 53.0468 38.9298 52.6714C38.4472 52.2998 38.0572 51.8216 37.7905 51.274C37.5238 50.7265 37.3876 50.1246 37.3925 49.5156V44.4944C37.3925 44.3806 37.3129 43.7241 36.8693 42.8417C36.808 42.7194 36.7772 42.5841 36.7793 42.4473C36.7815 42.3105 36.8165 42.1762 36.8816 42.0558C36.9466 41.9355 37.0397 41.8326 37.153 41.7558C37.2663 41.679 37.3963 41.6307 37.5322 41.6149C38.3653 41.5105 39.1847 41.3165 39.9762 41.0364C40.9415 40.6951 41.8076 40.2271 42.3227 39.6519C43.0881 38.7971 43.47 38.1406 43.6796 37.4305C43.8974 36.6944 43.9526 35.838 43.9526 34.5169C43.9526 32.6628 42.9776 31.1044 42.5291 30.6022C42.4273 30.4888 42.3579 30.35 42.3282 30.2005C42.2984 30.0509 42.3095 29.8962 42.3601 29.7524C42.649 28.9337 42.8532 28.0875 42.9695 27.2271C43.0215 26.7802 43.0247 26.4065 42.9792 26.1367C42.9691 26.0381 42.9392 25.9425 42.8915 25.8556C42.7796 25.8363 42.6649 25.8413 42.5551 25.8702C42.2789 25.9222 41.9262 26.0522 41.5265 26.2505C40.7302 26.6437 39.9015 27.2255 39.388 27.6415C39.2748 27.7334 39.1397 27.7944 38.9959 27.8186C38.8521 27.8428 38.7045 27.8294 38.5674 27.7796C37.2517 27.3492 35.8831 27.1016 34.5 27.0435C32.8636 27.0825 30.9754 27.5472 30.3302 27.7796C30.1932 27.8294 30.0456 27.8428 29.9018 27.8186C29.758 27.7944 29.6229 27.7334 29.5096 27.6415C28.8455 27.1069 28.1291 26.6408 27.3711 26.2505C27.0457 26.0796 26.6993 25.9518 26.3409 25.8702C26.2316 25.8415 26.1175 25.8365 26.0061 25.8556C25.9584 25.9425 25.9285 26.0381 25.9184 26.1367C25.8729 26.4065 25.8761 26.7802 25.9281 27.2271C26.0452 28.0873 26.2494 28.9334 26.5375 29.7524C26.6399 30.0449 26.5765 30.3699 26.3685 30.6022C25.92 31.1044 24.945 32.6628 24.945 34.5169C24.945 35.8364 25.0002 36.6944 25.218 37.4305C25.4292 38.1406 25.8095 38.7955 26.5733 39.6519C27.09 40.2271 27.9545 40.6951 28.9214 41.0364C29.7124 41.3163 30.5312 41.5103 31.3638 41.6149C31.535 41.6333 31.6967 41.7034 31.8271 41.8158C31.9576 41.9283 32.0507 42.0779 32.0941 42.2446C32.1375 42.4113 32.1291 42.5873 32.0701 42.7491C32.011 42.9109 31.9041 43.0509 31.7635 43.1505C31.4954 43.3422 31.3183 43.6868 31.2191 44.0849C31.1679 44.2898 31.1375 44.4994 31.1281 44.7105V44.7414C31.1302 44.9474 31.0573 45.1472 30.9231 45.3035C30.7889 45.4599 30.6025 45.5621 30.3985 45.5912Z" fill="url(#paint1_linear_243_185)"/>
<defs>
<linearGradient id="paint0_linear_243_185" x1="5.31646" y1="34.9996" x2="63.0498" y2="34.9996" gradientUnits="userSpaceOnUse">
<stop stop-color="#EAAEFF"/>
<stop offset="0.421875" stop-color="#D1ADFF"/>
<stop offset="0.760417" stop-color="#A9D6FF"/>
<stop offset="1" stop-color="white"/>
<stop offset="1" stop-color="white" stop-opacity="0"/>
</linearGradient>
<linearGradient id="paint1_linear_243_185" x1="17.962" y1="34.6876" x2="50.1278" y2="34.6876" gradientUnits="userSpaceOnUse">
<stop stop-color="#EAAEFF"/>
<stop offset="0.421875" stop-color="#D1ADFF"/>
<stop offset="0.760417" stop-color="#A9D6FF"/>
<stop offset="1" stop-color="white"/>
<stop offset="1" stop-color="white" stop-opacity="0"/>
</linearGradient>
</defs>
</svg>
