<svg width="39" height="39" viewBox="0 0 39 39" fill="none" xmlns="http://www.w3.org/2000/svg">
<g clip-path="url(#clip0_42_313)">
<path fill-rule="evenodd" clip-rule="evenodd" d="M19.5 2.51062C9.66063 2.51062 1.69488 10.4358 1.69488 20.1955C1.69488 27.3617 5.98975 33.5286 12.1712 36.3025C12.818 36.5934 13.4501 36.478 13.9441 36.1075C14.2173 35.8947 14.4375 35.6216 14.5875 35.3095C14.7375 34.9974 14.8132 34.6549 14.8086 34.3086V33.3824L12.6035 33.0834C12.5872 33.0812 12.5709 33.0785 12.5547 33.0752C11.3392 32.838 10.5186 32.4106 9.91738 31.7947C9.412 31.2764 9.10325 30.6556 8.84163 30.1291L8.75063 29.9455C8.50882 29.4411 8.24477 28.9477 7.95925 28.4667C7.73987 28.119 7.56925 27.9402 7.40025 27.8281C6.97125 27.5437 6.5585 27.0611 6.5585 26.4582C6.55703 26.2847 6.59418 26.1131 6.66726 25.9557C6.74033 25.7983 6.8475 25.6591 6.981 25.5482C7.23296 25.3488 7.54698 25.2441 7.86825 25.2525C8.229 25.2525 8.56863 25.363 8.85137 25.4897C9.14062 25.6197 9.42825 25.792 9.69637 25.9707C10.3496 26.4062 10.9931 26.9214 11.5375 27.5567C12.1046 28.2165 12.506 28.6357 13.1105 28.7219C13.6077 28.7934 14.1147 28.795 14.5096 28.7771C14.5645 28.4645 14.655 28.1592 14.7794 27.8671C14.2971 27.7546 13.8213 27.6157 13.3543 27.4511C12.2915 27.0741 11.1069 26.4875 10.3106 25.5986C9.43637 24.6204 8.89525 23.7477 8.593 22.7272C8.29887 21.7327 8.25012 20.6554 8.25012 19.3294C8.25012 17.2981 9.12925 15.587 9.789 14.6786C9.53552 13.8833 9.35334 13.0671 9.24463 12.2395C9.17262 11.7176 9.17317 11.1882 9.24625 10.6665C9.3275 10.1904 9.53062 9.60537 10.0652 9.25275C10.5804 8.90987 11.1849 8.9245 11.6561 9.01225C12.1452 9.10487 12.6539 9.308 13.1219 9.54037C13.884 9.91737 14.6413 10.4211 15.2084 10.8485C16.1866 10.5609 17.9172 10.1904 19.4821 10.1562H19.5179C21.0844 10.1904 22.737 10.5609 23.6909 10.8469C24.2596 10.4211 25.0153 9.91575 25.7758 9.54037C26.2438 9.308 26.7507 9.10487 27.2415 9.01225C27.7127 8.9245 28.3172 8.90987 28.834 9.25112C29.367 9.60537 29.5717 10.1904 29.6514 10.6665C29.7342 11.1621 29.7148 11.7162 29.6514 12.2395C29.5431 13.067 29.3615 13.8833 29.1086 14.6786C29.7684 15.5886 30.6475 17.2997 30.6475 19.3294C30.6475 20.6554 30.5987 21.7327 30.3062 22.7256C30.0024 23.7494 29.4612 24.6204 28.587 25.5986C27.7907 26.4875 26.6061 27.0741 25.5434 27.4511C24.9792 27.6494 24.4028 27.8106 23.8176 27.9337C24.0175 28.5382 24.089 29.0274 24.089 29.3085V34.3297C24.089 35.0935 24.4449 35.7451 24.9503 36.1254C25.441 36.4975 26.0715 36.6129 26.7182 36.3301C32.9582 33.5806 37.3035 27.3975 37.3035 20.1939C37.3035 10.4357 29.341 2.51062 19.5 2.51062ZM15.3985 30.4037C14.976 30.4639 15.3969 30.4037 15.3969 30.4037H15.392L15.379 30.407L15.3319 30.4135C15.0905 30.4419 14.8482 30.4619 14.6055 30.4736C14.0272 30.5038 13.4473 30.4804 12.8733 30.4037C11.5879 30.2217 10.8063 29.3117 10.3009 28.7202L10.2521 28.665C10.0869 28.4733 9.90939 28.2926 9.72075 28.1239C9.88812 28.4326 10.062 28.7771 10.2489 29.1476L10.2651 29.1801L10.348 29.3491C10.6324 29.9146 10.8193 30.2916 11.1296 30.6069C11.4319 30.9156 11.9031 31.2146 12.8554 31.4031L15.7706 31.798C15.9742 31.8256 16.1609 31.9261 16.296 32.0809C16.4311 32.2357 16.5054 32.4343 16.5051 32.6397V34.3086C16.5051 35.6086 15.8958 36.7673 14.9614 37.4692C14.4708 37.8441 13.8872 38.0779 13.2735 38.1455C12.6599 38.2131 12.0394 38.1119 11.479 37.8527C4.71575 34.8189 0 28.0637 0 20.1955C0 9.4835 8.73763 0.8125 19.5 0.8125C30.2624 0.8125 39 9.4835 39 20.1955C39 28.1044 34.2241 34.8774 27.4024 37.8852C26.8415 38.1394 26.2221 38.2364 25.6105 38.1657C24.9988 38.095 24.4178 37.8593 23.9298 37.4839C23.4472 37.1123 23.0572 36.6341 22.7905 36.0865C22.5238 35.539 22.3876 34.9371 22.3925 34.3281V29.3069C22.3925 29.1931 22.3129 28.5366 21.8693 27.6542C21.808 27.5319 21.7772 27.3966 21.7793 27.2598C21.7815 27.123 21.8165 26.9887 21.8816 26.8683C21.9466 26.748 22.0397 26.6451 22.153 26.5683C22.2663 26.4915 22.3963 26.4432 22.5322 26.4274C23.3653 26.323 24.1847 26.129 24.9762 25.8489C25.9415 25.5076 26.8076 25.0396 27.3227 24.4644C28.0881 23.6096 28.47 22.9531 28.6796 22.243C28.8974 21.5069 28.9526 20.6505 28.9526 19.3294C28.9526 17.4753 27.9776 15.9169 27.5291 15.4147C27.4273 15.3013 27.3579 15.1625 27.3282 15.013C27.2984 14.8634 27.3095 14.7087 27.3601 14.5649C27.649 13.7462 27.8532 12.9 27.9695 12.0396C28.0215 11.5927 28.0247 11.219 27.9792 10.9492C27.9691 10.8506 27.9392 10.755 27.8915 10.6681C27.7796 10.6488 27.6649 10.6538 27.5551 10.6827C27.2789 10.7347 26.9262 10.8647 26.5265 11.063C25.7302 11.4562 24.9015 12.038 24.388 12.454C24.2748 12.5459 24.1397 12.6069 23.9959 12.6311C23.8521 12.6553 23.7045 12.6419 23.5674 12.5921C22.2517 12.1617 20.8831 11.9141 19.5 11.856C17.8636 11.895 15.9754 12.3597 15.3302 12.5921C15.1932 12.6419 15.0456 12.6553 14.9018 12.6311C14.758 12.6069 14.6229 12.5459 14.5096 12.454C13.8455 11.9194 13.1291 11.4533 12.3711 11.063C12.0457 10.8921 11.6993 10.7643 11.3409 10.6827C11.2316 10.654 11.1175 10.649 11.0061 10.6681C10.9584 10.755 10.9285 10.8506 10.9184 10.9492C10.8729 11.219 10.8761 11.5927 10.9281 12.0396C11.0452 12.8998 11.2494 13.7459 11.5375 14.5649C11.6399 14.8574 11.5765 15.1824 11.3685 15.4147C10.92 15.9169 9.945 17.4753 9.945 19.3294C9.945 20.6489 10.0002 21.5069 10.218 22.243C10.4292 22.9531 10.8095 23.608 11.5733 24.4644C12.09 25.0396 12.9545 25.5076 13.9214 25.8489C14.7124 26.1288 15.5312 26.3228 16.3638 26.4274C16.535 26.4458 16.6967 26.5159 16.8271 26.6283C16.9576 26.7408 17.0507 26.8904 17.0941 27.0571C17.1375 27.2238 17.1291 27.3998 17.0701 27.5616C17.011 27.7234 16.9041 27.8634 16.7635 27.963C16.4954 28.1547 16.3183 28.4993 16.2191 28.8974C16.1679 29.1023 16.1375 29.3119 16.1281 29.523V29.5539C16.1302 29.7599 16.0573 29.9597 15.9231 30.116C15.7889 30.2724 15.6025 30.3746 15.3985 30.4037Z" fill="white" fill-opacity="0.6"/>
</g>
<defs>
<clipPath id="clip0_42_313">
<rect width="39" height="39" fill="white"/>
</clipPath>
</defs>
</svg>
