<svg width="44" height="43" viewBox="0 0 44 43" fill="none" xmlns="http://www.w3.org/2000/svg">
<path fill-rule="evenodd" clip-rule="evenodd" d="M12.93 0.129C15.276 0.0234545 16.024 0 22 0C27.976 0 28.724 0.0254091 31.068 0.129C33.412 0.232591 35.012 0.598091 36.412 1.12777C37.878 1.66918 39.208 2.5155 40.308 3.61005C41.428 4.68309 42.292 5.98091 42.844 7.41555C43.388 8.78373 43.76 10.3474 43.868 12.6342C43.976 14.9308 44 15.6618 44 21.5C44 27.3402 43.974 28.0712 43.868 30.3639C43.762 32.6507 43.388 34.2143 42.844 35.5825C42.292 37.0173 41.4266 38.3173 40.308 39.3919C39.208 40.4865 37.878 41.3308 36.412 41.8703C35.012 42.4019 33.412 42.7655 31.072 42.871C28.724 42.9765 27.976 43 22 43C16.024 43 15.276 42.9746 12.93 42.871C10.59 42.7674 8.99 42.4019 7.59 41.8703C6.12184 41.3307 4.79164 40.485 3.692 39.3919C2.57276 38.3182 1.70663 37.0189 1.154 35.5845C0.612 34.2163 0.24 32.6526 0.132 30.3658C0.024 28.0692 0 27.3382 0 21.5C0 15.6598 0.026 14.9288 0.132 12.6381C0.238 10.3474 0.612 8.78373 1.154 7.41555C1.70745 5.98107 2.57424 4.68175 3.694 3.60809C4.79208 2.51453 6.12094 1.66809 7.588 1.12777C8.988 0.598091 10.588 0.234545 12.928 0.129H12.93ZM30.89 3.999C28.57 3.89541 27.874 3.87391 22 3.87391C16.126 3.87391 15.43 3.89541 13.11 3.999C10.964 4.09477 9.8 4.44464 9.024 4.73977C7.998 5.13068 7.264 5.59391 6.494 6.34641C5.76409 7.04037 5.20236 7.88519 4.85 8.81891C4.548 9.57727 4.19 10.7148 4.092 12.812C3.986 15.0793 3.964 15.7595 3.964 21.5C3.964 27.2405 3.986 27.9207 4.092 30.188C4.19 32.2852 4.548 33.4227 4.85 34.1811C5.202 35.1134 5.764 35.9597 6.494 36.6536C7.204 37.367 8.07 37.9162 9.024 38.2602C9.8 38.5554 10.964 38.9052 13.11 39.001C15.43 39.1046 16.124 39.1261 22 39.1261C27.876 39.1261 28.57 39.1046 30.89 39.001C33.036 38.9052 34.2 38.5554 34.976 38.2602C36.002 37.8693 36.736 37.4061 37.506 36.6536C38.236 35.9597 38.798 35.1134 39.15 34.1811C39.452 33.4227 39.81 32.2852 39.908 30.188C40.014 27.9207 40.036 27.2405 40.036 21.5C40.036 15.7595 40.014 15.0793 39.908 12.812C39.81 10.7148 39.452 9.57727 39.15 8.81891C38.75 7.81623 38.276 7.09891 37.506 6.34641C36.7959 5.63314 35.9314 5.08418 34.976 4.73977C34.2 4.44464 33.036 4.09477 30.89 3.999ZM19.19 28.1279C20.7593 28.7663 22.5068 28.8524 24.1339 28.3716C25.761 27.8908 27.1668 26.8729 28.1112 25.4917C29.0557 24.1104 29.4801 22.4516 29.3121 20.7985C29.1441 19.1454 28.394 17.6006 27.19 16.428C26.4225 15.6783 25.4944 15.1044 24.4727 14.7473C23.4509 14.3903 22.3609 14.2591 21.281 14.3632C20.2011 14.4673 19.1583 14.8041 18.2276 15.3493C17.2969 15.8945 16.5015 16.6346 15.8986 17.5163C15.2957 18.3981 14.9004 19.3994 14.741 20.4484C14.5817 21.4973 14.6623 22.5678 14.9771 23.5826C15.2919 24.5974 15.833 25.5315 16.5614 26.3174C17.2899 27.1034 18.1876 27.7217 19.19 28.1279ZM14.004 13.6857C15.054 12.6595 16.3006 11.8455 17.6726 11.2902C19.0446 10.7348 20.515 10.4489 22 10.4489C23.485 10.4489 24.9554 10.7348 26.3274 11.2902C27.6994 11.8455 28.946 12.6595 29.996 13.6857C31.046 14.7119 31.879 15.9302 32.4473 17.2709C33.0156 18.6117 33.3081 20.0488 33.3081 21.5C33.3081 22.9512 33.0156 24.3883 32.4473 25.7291C31.879 27.0698 31.046 28.2881 29.996 29.3143C27.8753 31.3867 24.9991 32.5511 22 32.5511C19.0009 32.5511 16.1247 31.3867 14.004 29.3143C11.8833 27.2418 10.6919 24.4309 10.6919 21.5C10.6919 18.5691 11.8833 15.7582 14.004 13.6857ZM35.816 12.0947C36.0762 11.8548 36.2845 11.5664 36.4286 11.2464C36.5727 10.9264 36.6496 10.5815 36.6548 10.2319C36.66 9.88236 36.5934 9.53534 36.459 9.2114C36.3245 8.88746 36.1249 8.59318 35.8719 8.34599C35.619 8.09879 35.3179 7.90371 34.9864 7.77228C34.6549 7.64086 34.2998 7.57577 33.9421 7.58087C33.5845 7.58596 33.2315 7.66114 32.9041 7.80195C32.5766 7.94276 32.2815 8.14634 32.036 8.40064C31.5586 8.89519 31.2973 9.5521 31.3074 10.2319C31.3175 10.9117 31.5984 11.5609 32.0903 12.0416C32.5822 12.5224 33.2465 12.7969 33.9421 12.8068C34.6378 12.8167 35.3099 12.5613 35.816 12.0947Z" fill="url(#paint0_linear_46_517)"/>
<defs>
<linearGradient id="paint0_linear_46_517" x1="3.34177" y1="21.4998" x2="39.6313" y2="21.4998" gradientUnits="userSpaceOnUse">
<stop stop-color="#EAAEFF"/>
<stop offset="0.421875" stop-color="#D1ADFF"/>
<stop offset="0.760417" stop-color="#A9D6FF"/>
<stop offset="1" stop-color="white"/>
<stop offset="1" stop-color="white" stop-opacity="0"/>
</linearGradient>
</defs>
</svg>
