<svg width="38" height="38" viewBox="0 0 38 38" fill="none" xmlns="http://www.w3.org/2000/svg">
<path d="M36.0498 15.48C35.5347 14.8615 34.8901 14.3636 34.1615 14.0215C33.4329 13.6794 32.6381 13.5014 31.8332 13.5H23.4732L24.4998 10.8783C24.9269 9.73043 25.0691 8.49609 24.9143 7.28117C24.7595 6.06625 24.3123 4.90701 23.611 3.9029C22.9098 2.89879 21.9754 2.07977 20.8881 1.51611C19.8007 0.952445 18.5929 0.660956 17.3682 0.666647C17.0155 0.667383 16.6705 0.769818 16.3746 0.961672C16.0787 1.15353 15.8444 1.42665 15.6998 1.74831L10.4748 13.5H6.1665C4.70781 13.5 3.30887 14.0794 2.27742 15.1109C1.24597 16.1423 0.666504 17.5413 0.666504 19V31.8333C0.666504 33.292 1.24597 34.691 2.27742 35.7224C3.30887 36.7538 4.70781 37.3333 6.1665 37.3333H29.5048C30.7915 37.3329 32.0373 36.8814 33.0254 36.0574C34.0136 35.2333 34.6816 34.089 34.9132 32.8233L37.2415 19.99C37.3855 19.1968 37.3534 18.3817 37.1475 17.6024C36.9416 16.823 36.5668 16.0985 36.0498 15.48ZM9.83317 33.6666H6.1665C5.68027 33.6666 5.21396 33.4735 4.87014 33.1297C4.52632 32.7859 4.33317 32.3195 4.33317 31.8333V19C4.33317 18.5138 4.52632 18.0474 4.87014 17.7036C5.21396 17.3598 5.68027 17.1666 6.1665 17.1666H9.83317V33.6666ZM33.6665 19.33L31.3382 32.1633C31.2601 32.5904 31.0329 32.9759 30.6972 33.2512C30.3615 33.5265 29.9389 33.6737 29.5048 33.6666H13.4998V15.7183L18.4865 4.49831C18.9998 4.64796 19.4765 4.90239 19.8865 5.24555C20.2966 5.58871 20.631 6.01314 20.8687 6.49205C21.1065 6.97096 21.2423 7.49396 21.2678 8.02803C21.2932 8.5621 21.2077 9.09564 21.0165 9.59498L20.0448 12.2166C19.8378 12.7708 19.7679 13.3668 19.8411 13.9538C19.9143 14.5408 20.1285 15.1014 20.4653 15.5877C20.8021 16.074 21.2516 16.4716 21.7753 16.7465C22.2991 17.0215 22.8816 17.1656 23.4732 17.1666H31.8332C32.1025 17.1662 32.3686 17.2251 32.6126 17.3392C32.8566 17.4533 33.0725 17.6197 33.2448 17.8266C33.4214 18.0307 33.5508 18.2713 33.6237 18.5312C33.6966 18.7911 33.7112 19.0638 33.6665 19.33Z" fill="url(#paint0_linear_54_239)"/>
<defs>
<linearGradient id="paint0_linear_54_239" x1="3.45107" y1="18.9997" x2="33.6897" y2="18.9997" gradientUnits="userSpaceOnUse">
<stop stop-color="#EAAEFF"/>
<stop offset="0.421875" stop-color="#D1ADFF"/>
<stop offset="0.760417" stop-color="#A9D6FF"/>
<stop offset="1" stop-color="white"/>
<stop offset="1" stop-color="white" stop-opacity="0"/>
</linearGradient>
</defs>
</svg>
