<svg width="1468" height="418" viewBox="0 0 1468 418" fill="none" xmlns="http://www.w3.org/2000/svg">
<path d="M25.1958 5V398" stroke="#F0F0F0"/>
<path d="M184.926 5V398" stroke="#F0F0F0"/>
<path d="M344.656 5V398" stroke="#F0F0F0"/>
<path d="M504.388 5V398" stroke="#F0F0F0"/>
<path d="M664.118 5V398" stroke="#F0F0F0"/>
<path d="M824.8 5V398" stroke="#F0F0F0"/>
<path d="M984.53 5V398" stroke="#F0F0F0"/>
<path d="M1144.26 5V398" stroke="#F0F0F0"/>
<path d="M1303.99 5V398" stroke="#F0F0F0"/>
<path d="M1464.67 5V398" stroke="#F0F0F0"/>
<path d="M25.6709 398.5H1464.2" stroke="#F0F0F0"/>
<path d="M25.6709 319.5H1464.2" stroke="#F0F0F0"/>
<path d="M25.6709 241.5H1464.2" stroke="#F0F0F0"/>
<path d="M25.6709 162.5H1464.2" stroke="#F0F0F0"/>
<path d="M25.6709 84.5H1464.2" stroke="#F0F0F0"/>
<path d="M25.6709 4.5H1464.2" stroke="#F0F0F0"/>
<path d="M25.6709 398.5H1464.2" stroke="#F0F0F0"/>
<path d="M25.1958 5V398" stroke="#F0F0F0"/>
<path d="M19.6162 407.891V415H18.6884V407.891H19.6162ZM21.9013 407.891V408.662H16.4082V407.891H21.9013ZM24.5234 415.098C24.1556 415.098 23.8219 415.036 23.5224 414.912C23.2262 414.785 22.9707 414.608 22.7558 414.38C22.5442 414.152 22.3815 413.882 22.2675 413.569C22.1536 413.257 22.0966 412.915 22.0966 412.544V412.339C22.0966 411.909 22.1601 411.527 22.2871 411.191C22.414 410.853 22.5865 410.566 22.8046 410.332C23.0227 410.098 23.2701 409.92 23.5468 409.8C23.8235 409.679 24.11 409.619 24.4062 409.619C24.7838 409.619 25.1093 409.684 25.3828 409.814C25.6595 409.945 25.8857 410.127 26.0615 410.361C26.2373 410.592 26.3675 410.866 26.4521 411.182C26.5367 411.494 26.5791 411.836 26.5791 412.207V412.612H22.6337V411.875H25.6757V411.807C25.6627 411.572 25.6139 411.344 25.5293 411.123C25.4479 410.902 25.3177 410.719 25.1386 410.576C24.9596 410.433 24.7155 410.361 24.4062 410.361C24.2011 410.361 24.0123 410.405 23.8398 410.493C23.6673 410.578 23.5192 410.705 23.3955 410.874C23.2718 411.043 23.1757 411.25 23.1074 411.494C23.039 411.738 23.0048 412.02 23.0048 412.339V412.544C23.0048 412.795 23.039 413.031 23.1074 413.252C23.179 413.47 23.2815 413.662 23.415 413.828C23.5517 413.994 23.7161 414.124 23.9082 414.219C24.1035 414.313 24.3248 414.36 24.5722 414.36C24.8912 414.36 25.1614 414.295 25.3828 414.165C25.6041 414.035 25.7978 413.861 25.9638 413.643L26.5107 414.077C26.3968 414.25 26.2519 414.414 26.0761 414.57C25.9003 414.727 25.6839 414.854 25.4267 414.951C25.1728 415.049 24.8717 415.098 24.5234 415.098ZM28.2441 409.717L29.4013 411.641L30.5732 409.717H31.6328L29.9043 412.324L31.6865 415H30.6416L29.4209 413.018L28.2002 415H27.1503L28.9277 412.324L27.2041 409.717H28.2441ZM34.8066 409.717V410.41H31.9502V409.717H34.8066ZM32.917 408.433H33.8203V413.691C33.8203 413.87 33.8479 414.006 33.9033 414.097C33.9586 414.188 34.0302 414.248 34.1181 414.277C34.206 414.307 34.3004 414.321 34.4013 414.321C34.4762 414.321 34.5543 414.315 34.6357 414.302C34.7203 414.285 34.7838 414.272 34.8261 414.263L34.831 415C34.7594 415.023 34.665 415.044 34.5478 415.063C34.4339 415.086 34.2955 415.098 34.1328 415.098C33.9114 415.098 33.708 415.054 33.5224 414.966C33.3369 414.878 33.1888 414.731 33.0781 414.526C32.9707 414.318 32.917 414.038 32.917 413.687V408.433Z" fill="#A3A3A3"/>
<path d="M179.453 407.891V415H178.525V407.891H179.453ZM181.738 407.891V408.662H176.245V407.891H181.738ZM184.36 415.098C183.992 415.098 183.658 415.036 183.359 414.912C183.063 414.785 182.807 414.608 182.592 414.38C182.381 414.152 182.218 413.882 182.104 413.569C181.99 413.257 181.933 412.915 181.933 412.544V412.339C181.933 411.909 181.997 411.527 182.123 411.191C182.25 410.853 182.423 410.566 182.641 410.332C182.859 410.098 183.107 409.92 183.383 409.8C183.66 409.679 183.946 409.619 184.243 409.619C184.62 409.619 184.946 409.684 185.219 409.814C185.496 409.945 185.722 410.127 185.898 410.361C186.074 410.592 186.204 410.866 186.289 411.182C186.373 411.494 186.415 411.836 186.415 412.207V412.612H182.47V411.875H185.512V411.807C185.499 411.572 185.45 411.344 185.366 411.123C185.284 410.902 185.154 410.719 184.975 410.576C184.796 410.433 184.552 410.361 184.243 410.361C184.038 410.361 183.849 410.405 183.676 410.493C183.504 410.578 183.356 410.705 183.232 410.874C183.108 411.043 183.012 411.25 182.944 411.494C182.875 411.738 182.841 412.02 182.841 412.339V412.544C182.841 412.795 182.875 413.031 182.944 413.252C183.015 413.47 183.118 413.662 183.251 413.828C183.388 413.994 183.553 414.124 183.745 414.219C183.94 414.313 184.161 414.36 184.409 414.36C184.728 414.36 184.998 414.295 185.219 414.165C185.441 414.035 185.634 413.861 185.8 413.643L186.347 414.077C186.233 414.25 186.088 414.414 185.913 414.57C185.737 414.727 185.52 414.854 185.263 414.951C185.009 415.049 184.708 415.098 184.36 415.098ZM188.081 409.717L189.238 411.641L190.41 409.717H191.469L189.741 412.324L191.523 415H190.478L189.257 413.018L188.037 415H186.987L188.764 412.324L187.04 409.717H188.081ZM194.643 409.717V410.41H191.787V409.717H194.643ZM192.753 408.433H193.657V413.691C193.657 413.87 193.684 414.006 193.74 414.097C193.795 414.188 193.867 414.248 193.955 414.277C194.042 414.307 194.137 414.321 194.238 414.321C194.313 414.321 194.391 414.315 194.472 414.302C194.557 414.285 194.62 414.272 194.663 414.263L194.667 415C194.596 415.023 194.501 415.044 194.384 415.063C194.27 415.086 194.132 415.098 193.969 415.098C193.748 415.098 193.544 415.054 193.359 414.966C193.173 414.878 193.025 414.731 192.915 414.526C192.807 414.318 192.753 414.038 192.753 413.687V408.433Z" fill="#A3A3A3"/>
<path d="M339.289 407.891V415H338.361V407.891H339.289ZM341.574 407.891V408.662H336.081V407.891H341.574ZM344.196 415.098C343.828 415.098 343.494 415.036 343.195 414.912C342.899 414.785 342.643 414.608 342.428 414.38C342.217 414.152 342.054 413.882 341.94 413.569C341.826 413.257 341.769 412.915 341.769 412.544V412.339C341.769 411.909 341.832 411.527 341.959 411.191C342.086 410.853 342.259 410.566 342.477 410.332C342.695 410.098 342.943 409.92 343.219 409.8C343.496 409.679 343.782 409.619 344.079 409.619C344.456 409.619 344.782 409.684 345.055 409.814C345.332 409.945 345.558 410.127 345.734 410.361C345.91 410.592 346.04 410.866 346.124 411.182C346.209 411.494 346.251 411.836 346.251 412.207V412.612H342.306V411.875H345.348V411.807C345.335 411.572 345.286 411.344 345.202 411.123C345.12 410.902 344.99 410.719 344.811 410.576C344.632 410.433 344.388 410.361 344.079 410.361C343.873 410.361 343.685 410.405 343.512 410.493C343.34 410.578 343.192 410.705 343.068 410.874C342.944 411.043 342.848 411.25 342.78 411.494C342.711 411.738 342.677 412.02 342.677 412.339V412.544C342.677 412.795 342.711 413.031 342.78 413.252C342.851 413.47 342.954 413.662 343.087 413.828C343.224 413.994 343.388 414.124 343.581 414.219C343.776 414.313 343.997 414.36 344.245 414.36C344.564 414.36 344.834 414.295 345.055 414.165C345.276 414.035 345.47 413.861 345.636 413.643L346.183 414.077C346.069 414.25 345.924 414.414 345.748 414.57C345.573 414.727 345.356 414.854 345.099 414.951C344.845 415.049 344.544 415.098 344.196 415.098ZM347.916 409.717L349.074 411.641L350.246 409.717H351.305L349.577 412.324L351.359 415H350.314L349.093 413.018L347.873 415H346.823L348.6 412.324L346.876 409.717H347.916ZM354.479 409.717V410.41H351.623V409.717H354.479ZM352.589 408.433H353.493V413.691C353.493 413.87 353.52 414.006 353.576 414.097C353.631 414.188 353.703 414.248 353.79 414.277C353.878 414.307 353.973 414.321 354.074 414.321C354.149 414.321 354.227 414.315 354.308 414.302C354.393 414.285 354.456 414.272 354.498 414.263L354.503 415C354.432 415.023 354.337 415.044 354.22 415.063C354.106 415.086 353.968 415.098 353.805 415.098C353.584 415.098 353.38 415.054 353.195 414.966C353.009 414.878 352.861 414.731 352.75 414.526C352.643 414.318 352.589 414.038 352.589 413.687V408.433Z" fill="#A3A3A3"/>
<path d="M499.125 407.891V415H498.197V407.891H499.125ZM501.41 407.891V408.662H495.917V407.891H501.41ZM504.032 415.098C503.664 415.098 503.331 415.036 503.031 414.912C502.735 414.785 502.479 414.608 502.265 414.38C502.053 414.152 501.89 413.882 501.776 413.569C501.662 413.257 501.605 412.915 501.605 412.544V412.339C501.605 411.909 501.669 411.527 501.796 411.191C501.923 410.853 502.095 410.566 502.313 410.332C502.532 410.098 502.779 409.92 503.056 409.8C503.332 409.679 503.619 409.619 503.915 409.619C504.293 409.619 504.618 409.684 504.892 409.814C505.168 409.945 505.394 410.127 505.57 410.361C505.746 410.592 505.876 410.866 505.961 411.182C506.046 411.494 506.088 411.836 506.088 412.207V412.612H502.143V411.875H505.185V411.807C505.172 411.572 505.123 411.344 505.038 411.123C504.957 410.902 504.826 410.719 504.647 410.576C504.468 410.433 504.224 410.361 503.915 410.361C503.71 410.361 503.521 410.405 503.349 410.493C503.176 410.578 503.028 410.705 502.904 410.874C502.781 411.043 502.685 411.25 502.616 411.494C502.548 411.738 502.514 412.02 502.514 412.339V412.544C502.514 412.795 502.548 413.031 502.616 413.252C502.688 413.47 502.79 413.662 502.924 413.828C503.061 413.994 503.225 414.124 503.417 414.219C503.612 414.313 503.834 414.36 504.081 414.36C504.4 414.36 504.67 414.295 504.892 414.165C505.113 414.035 505.307 413.861 505.473 413.643L506.019 414.077C505.906 414.25 505.761 414.414 505.585 414.57C505.409 414.727 505.193 414.854 504.936 414.951C504.682 415.049 504.38 415.098 504.032 415.098ZM507.753 409.717L508.91 411.641L510.082 409.717H511.142L509.413 412.324L511.195 415H510.15L508.93 413.018L507.709 415H506.659L508.436 412.324L506.713 409.717H507.753ZM514.315 409.717V410.41H511.459V409.717H514.315ZM512.426 408.433H513.329V413.691C513.329 413.87 513.357 414.006 513.412 414.097C513.467 414.188 513.539 414.248 513.627 414.277C513.715 414.307 513.809 414.321 513.91 414.321C513.985 414.321 514.063 414.315 514.144 414.302C514.229 414.285 514.293 414.272 514.335 414.263L514.34 415C514.268 415.023 514.174 415.044 514.057 415.063C513.943 415.086 513.804 415.098 513.642 415.098C513.42 415.098 513.217 415.054 513.031 414.966C512.846 414.878 512.698 414.731 512.587 414.526C512.479 414.318 512.426 414.038 512.426 413.687V408.433Z" fill="#A3A3A3"/>
<path d="M658.961 407.891V415H658.033V407.891H658.961ZM661.246 407.891V408.662H655.753V407.891H661.246ZM663.868 415.098C663.5 415.098 663.167 415.036 662.867 414.912C662.571 414.785 662.315 414.608 662.101 414.38C661.889 414.152 661.726 413.882 661.612 413.569C661.498 413.257 661.441 412.915 661.441 412.544V412.339C661.441 411.909 661.505 411.527 661.632 411.191C661.759 410.853 661.931 410.566 662.149 410.332C662.367 410.098 662.615 409.92 662.892 409.8C663.168 409.679 663.455 409.619 663.751 409.619C664.129 409.619 664.454 409.684 664.727 409.814C665.004 409.945 665.23 410.127 665.406 410.361C665.582 410.592 665.712 410.866 665.797 411.182C665.881 411.494 665.924 411.836 665.924 412.207V412.612H661.978V411.875H665.02V411.807C665.007 411.572 664.959 411.344 664.874 411.123C664.793 410.902 664.662 410.719 664.483 410.576C664.304 410.433 664.06 410.361 663.751 410.361C663.546 410.361 663.357 410.405 663.185 410.493C663.012 410.578 662.864 410.705 662.74 410.874C662.616 411.043 662.52 411.25 662.452 411.494C662.384 411.738 662.35 412.02 662.35 412.339V412.544C662.35 412.795 662.384 413.031 662.452 413.252C662.524 413.47 662.626 413.662 662.76 413.828C662.896 413.994 663.061 414.124 663.253 414.219C663.448 414.313 663.67 414.36 663.917 414.36C664.236 414.36 664.506 414.295 664.727 414.165C664.949 414.035 665.143 413.861 665.309 413.643L665.855 414.077C665.741 414.25 665.597 414.414 665.421 414.57C665.245 414.727 665.029 414.854 664.771 414.951C664.518 415.049 664.216 415.098 663.868 415.098ZM667.589 409.717L668.746 411.641L669.918 409.717H670.977L669.249 412.324L671.031 415H669.986L668.766 413.018L667.545 415H666.495L668.272 412.324L666.549 409.717H667.589ZM674.151 409.717V410.41H671.295V409.717H674.151ZM672.262 408.433H673.165V413.691C673.165 413.87 673.193 414.006 673.248 414.097C673.303 414.188 673.375 414.248 673.463 414.277C673.551 414.307 673.645 414.321 673.746 414.321C673.821 414.321 673.899 414.315 673.98 414.302C674.065 414.285 674.129 414.272 674.171 414.263L674.176 415C674.104 415.023 674.01 415.044 673.893 415.063C673.779 415.086 673.64 415.098 673.477 415.098C673.256 415.098 673.053 415.054 672.867 414.966C672.682 414.878 672.533 414.731 672.423 414.526C672.315 414.318 672.262 414.038 672.262 413.687V408.433Z" fill="#A3A3A3"/>
<path d="M818.797 407.891V415H817.87V407.891H818.797ZM821.082 407.891V408.662H815.589V407.891H821.082ZM823.705 415.098C823.337 415.098 823.003 415.036 822.704 414.912C822.407 414.785 822.152 414.608 821.937 414.38C821.725 414.152 821.563 413.882 821.449 413.569C821.335 413.257 821.278 412.915 821.278 412.544V412.339C821.278 411.909 821.341 411.527 821.468 411.191C821.595 410.853 821.768 410.566 821.986 410.332C822.204 410.098 822.451 409.92 822.728 409.8C823.005 409.679 823.291 409.619 823.587 409.619C823.965 409.619 824.29 409.684 824.564 409.814C824.841 409.945 825.067 410.127 825.243 410.361C825.418 410.592 825.549 410.866 825.633 411.182C825.718 411.494 825.76 411.836 825.76 412.207V412.612H821.815V411.875H824.857V411.807C824.844 411.572 824.795 411.344 824.71 411.123C824.629 410.902 824.499 410.719 824.32 410.576C824.141 410.433 823.897 410.361 823.587 410.361C823.382 410.361 823.193 410.405 823.021 410.493C822.848 410.578 822.7 410.705 822.577 410.874C822.453 411.043 822.357 411.25 822.289 411.494C822.22 411.738 822.186 412.02 822.186 412.339V412.544C822.186 412.795 822.22 413.031 822.289 413.252C822.36 413.47 822.463 413.662 822.596 413.828C822.733 413.994 822.897 414.124 823.089 414.219C823.285 414.313 823.506 414.36 823.753 414.36C824.072 414.36 824.343 414.295 824.564 414.165C824.785 414.035 824.979 413.861 825.145 413.643L825.692 414.077C825.578 414.25 825.433 414.414 825.257 414.57C825.082 414.727 824.865 414.854 824.608 414.951C824.354 415.049 824.053 415.098 823.705 415.098ZM827.425 409.717L828.582 411.641L829.754 409.717H830.814L829.085 412.324L830.868 415H829.823L828.602 413.018L827.381 415H826.332L828.109 412.324L826.385 409.717H827.425ZM833.988 409.717V410.41H831.131V409.717H833.988ZM832.098 408.433H833.001V413.691C833.001 413.87 833.029 414.006 833.084 414.097C833.14 414.188 833.211 414.248 833.299 414.277C833.387 414.307 833.482 414.321 833.582 414.321C833.657 414.321 833.735 414.315 833.817 414.302C833.901 414.285 833.965 414.272 834.007 414.263L834.012 415C833.941 415.023 833.846 415.044 833.729 415.063C833.615 415.086 833.477 415.098 833.314 415.098C833.093 415.098 832.889 415.054 832.704 414.966C832.518 414.878 832.37 414.731 832.259 414.526C832.152 414.318 832.098 414.038 832.098 413.687V408.433Z" fill="#A3A3A3"/>
<path d="M978.634 407.891V415H977.706V407.891H978.634ZM980.919 407.891V408.662H975.426V407.891H980.919ZM983.541 415.098C983.173 415.098 982.839 415.036 982.54 414.912C982.244 414.785 981.988 414.608 981.773 414.38C981.562 414.152 981.399 413.882 981.285 413.569C981.171 413.257 981.114 412.915 981.114 412.544V412.339C981.114 411.909 981.178 411.527 981.305 411.191C981.432 410.853 981.604 410.566 981.822 410.332C982.04 410.098 982.288 409.92 982.564 409.8C982.841 409.679 983.128 409.619 983.424 409.619C983.801 409.619 984.127 409.684 984.4 409.814C984.677 409.945 984.903 410.127 985.079 410.361C985.255 410.592 985.385 410.866 985.47 411.182C985.554 411.494 985.597 411.836 985.597 412.207V412.612H981.651V411.875H984.693V411.807C984.68 411.572 984.631 411.344 984.547 411.123C984.465 410.902 984.335 410.719 984.156 410.576C983.977 410.433 983.733 410.361 983.424 410.361C983.219 410.361 983.03 410.405 982.857 410.493C982.685 410.578 982.537 410.705 982.413 410.874C982.289 411.043 982.193 411.25 982.125 411.494C982.057 411.738 982.022 412.02 982.022 412.339V412.544C982.022 412.795 982.057 413.031 982.125 413.252C982.197 413.47 982.299 413.662 982.433 413.828C982.569 413.994 982.734 414.124 982.926 414.219C983.121 414.313 983.342 414.36 983.59 414.36C983.909 414.36 984.179 414.295 984.4 414.165C984.622 414.035 984.815 413.861 984.981 413.643L985.528 414.077C985.414 414.25 985.269 414.414 985.094 414.57C984.918 414.727 984.701 414.854 984.444 414.951C984.19 415.049 983.889 415.098 983.541 415.098ZM987.262 409.717L988.419 411.641L989.591 409.717H990.65L988.922 412.324L990.704 415H989.659L988.438 413.018L987.218 415H986.168L987.945 412.324L986.222 409.717H987.262ZM993.824 409.717V410.41H990.968V409.717H993.824ZM991.935 408.433H992.838V413.691C992.838 413.87 992.866 414.006 992.921 414.097C992.976 414.188 993.048 414.248 993.136 414.277C993.224 414.307 993.318 414.321 993.419 414.321C993.494 414.321 993.572 414.315 993.653 414.302C993.738 414.285 993.801 414.272 993.844 414.263L993.849 415C993.777 415.023 993.683 415.044 993.565 415.063C993.451 415.086 993.313 415.098 993.15 415.098C992.929 415.098 992.726 415.054 992.54 414.966C992.354 414.878 992.206 414.731 992.096 414.526C991.988 414.318 991.935 414.038 991.935 413.687V408.433Z" fill="#A3A3A3"/>
<path d="M1138.47 407.891V415H1137.54V407.891H1138.47ZM1140.75 407.891V408.662H1135.26V407.891H1140.75ZM1143.38 415.098C1143.01 415.098 1142.68 415.036 1142.38 414.912C1142.08 414.785 1141.82 414.608 1141.61 414.38C1141.4 414.152 1141.23 413.882 1141.12 413.569C1141.01 413.257 1140.95 412.915 1140.95 412.544V412.339C1140.95 411.909 1141.01 411.527 1141.14 411.191C1141.27 410.853 1141.44 410.566 1141.66 410.332C1141.88 410.098 1142.12 409.92 1142.4 409.8C1142.68 409.679 1142.96 409.619 1143.26 409.619C1143.64 409.619 1143.96 409.684 1144.24 409.814C1144.51 409.945 1144.74 410.127 1144.91 410.361C1145.09 410.592 1145.22 410.866 1145.31 411.182C1145.39 411.494 1145.43 411.836 1145.43 412.207V412.612H1141.49V411.875H1144.53V411.807C1144.52 411.572 1144.47 411.344 1144.38 411.123C1144.3 410.902 1144.17 410.719 1143.99 410.576C1143.81 410.433 1143.57 410.361 1143.26 410.361C1143.05 410.361 1142.87 410.405 1142.69 410.493C1142.52 410.578 1142.37 410.705 1142.25 410.874C1142.13 411.043 1142.03 411.25 1141.96 411.494C1141.89 411.738 1141.86 412.02 1141.86 412.339V412.544C1141.86 412.795 1141.89 413.031 1141.96 413.252C1142.03 413.47 1142.14 413.662 1142.27 413.828C1142.41 413.994 1142.57 414.124 1142.76 414.219C1142.96 414.313 1143.18 414.36 1143.43 414.36C1143.74 414.36 1144.01 414.295 1144.24 414.165C1144.46 414.035 1144.65 413.861 1144.82 413.643L1145.36 414.077C1145.25 414.25 1145.11 414.414 1144.93 414.57C1144.75 414.727 1144.54 414.854 1144.28 414.951C1144.03 415.049 1143.73 415.098 1143.38 415.098ZM1147.1 409.717L1148.25 411.641L1149.43 409.717H1150.49L1148.76 412.324L1150.54 415H1149.5L1148.27 413.018L1147.05 415H1146L1147.78 412.324L1146.06 409.717H1147.1ZM1153.66 409.717V410.41H1150.8V409.717H1153.66ZM1151.77 408.433H1152.67V413.691C1152.67 413.87 1152.7 414.006 1152.76 414.097C1152.81 414.188 1152.88 414.248 1152.97 414.277C1153.06 414.307 1153.15 414.321 1153.25 414.321C1153.33 414.321 1153.41 414.315 1153.49 414.302C1153.57 414.285 1153.64 414.272 1153.68 414.263L1153.68 415C1153.61 415.023 1153.52 415.044 1153.4 415.063C1153.29 415.086 1153.15 415.098 1152.99 415.098C1152.76 415.098 1152.56 415.054 1152.38 414.966C1152.19 414.878 1152.04 414.731 1151.93 414.526C1151.82 414.318 1151.77 414.038 1151.77 413.687V408.433Z" fill="#A3A3A3"/>
<path d="M1298.31 407.891V415H1297.38V407.891H1298.31ZM1300.59 407.891V408.662H1295.1V407.891H1300.59ZM1303.21 415.098C1302.85 415.098 1302.51 415.036 1302.21 414.912C1301.92 414.785 1301.66 414.608 1301.45 414.38C1301.23 414.152 1301.07 413.882 1300.96 413.569C1300.84 413.257 1300.79 412.915 1300.79 412.544V412.339C1300.79 411.909 1300.85 411.527 1300.98 411.191C1301.1 410.853 1301.28 410.566 1301.49 410.332C1301.71 410.098 1301.96 409.92 1302.24 409.8C1302.51 409.679 1302.8 409.619 1303.1 409.619C1303.47 409.619 1303.8 409.684 1304.07 409.814C1304.35 409.945 1304.58 410.127 1304.75 410.361C1304.93 410.592 1305.06 410.866 1305.14 411.182C1305.23 411.494 1305.27 411.836 1305.27 412.207V412.612H1301.32V411.875H1304.37V411.807C1304.35 411.572 1304.3 411.344 1304.22 411.123C1304.14 410.902 1304.01 410.719 1303.83 410.576C1303.65 410.433 1303.4 410.361 1303.1 410.361C1302.89 410.361 1302.7 410.405 1302.53 410.493C1302.36 410.578 1302.21 410.705 1302.08 410.874C1301.96 411.043 1301.87 411.25 1301.8 411.494C1301.73 411.738 1301.69 412.02 1301.69 412.339V412.544C1301.69 412.795 1301.73 413.031 1301.8 413.252C1301.87 413.47 1301.97 413.662 1302.1 413.828C1302.24 413.994 1302.41 414.124 1302.6 414.219C1302.79 414.313 1303.01 414.36 1303.26 414.36C1303.58 414.36 1303.85 414.295 1304.07 414.165C1304.29 414.035 1304.49 413.861 1304.65 413.643L1305.2 414.077C1305.09 414.25 1304.94 414.414 1304.77 414.57C1304.59 414.727 1304.37 414.854 1304.12 414.951C1303.86 415.049 1303.56 415.098 1303.21 415.098ZM1306.93 409.717L1308.09 411.641L1309.26 409.717H1310.32L1308.59 412.324L1310.38 415H1309.33L1308.11 413.018L1306.89 415H1305.84L1307.62 412.324L1305.89 409.717H1306.93ZM1313.5 409.717V410.41H1310.64V409.717H1313.5ZM1311.61 408.433H1312.51V413.691C1312.51 413.87 1312.54 414.006 1312.59 414.097C1312.65 414.188 1312.72 414.248 1312.81 414.277C1312.9 414.307 1312.99 414.321 1313.09 414.321C1313.17 414.321 1313.24 414.315 1313.33 414.302C1313.41 414.285 1313.47 414.272 1313.52 414.263L1313.52 415C1313.45 415.023 1313.35 415.044 1313.24 415.063C1313.12 415.086 1312.98 415.098 1312.82 415.098C1312.6 415.098 1312.4 415.054 1312.21 414.966C1312.03 414.878 1311.88 414.731 1311.77 414.526C1311.66 414.318 1311.61 414.038 1311.61 413.687V408.433Z" fill="#A3A3A3"/>
<path d="M1448.84 407.891V415H1447.91V407.891H1448.84ZM1451.13 407.891V408.662H1445.63V407.891H1451.13ZM1453.75 415.098C1453.38 415.098 1453.05 415.036 1452.75 414.912C1452.45 414.785 1452.2 414.608 1451.98 414.38C1451.77 414.152 1451.61 413.882 1451.49 413.569C1451.38 413.257 1451.32 412.915 1451.32 412.544V412.339C1451.32 411.909 1451.39 411.527 1451.51 411.191C1451.64 410.853 1451.81 410.566 1452.03 410.332C1452.25 410.098 1452.5 409.92 1452.77 409.8C1453.05 409.679 1453.34 409.619 1453.63 409.619C1454.01 409.619 1454.34 409.684 1454.61 409.814C1454.89 409.945 1455.11 410.127 1455.29 410.361C1455.46 410.592 1455.59 410.866 1455.68 411.182C1455.76 411.494 1455.81 411.836 1455.81 412.207V412.612H1451.86V411.875H1454.9V411.807C1454.89 411.572 1454.84 411.344 1454.76 411.123C1454.67 410.902 1454.54 410.719 1454.37 410.576C1454.19 410.433 1453.94 410.361 1453.63 410.361C1453.43 410.361 1453.24 410.405 1453.07 410.493C1452.89 410.578 1452.75 410.705 1452.62 410.874C1452.5 411.043 1452.4 411.25 1452.33 411.494C1452.27 411.738 1452.23 412.02 1452.23 412.339V412.544C1452.23 412.795 1452.27 413.031 1452.33 413.252C1452.41 413.47 1452.51 413.662 1452.64 413.828C1452.78 413.994 1452.94 414.124 1453.13 414.219C1453.33 414.313 1453.55 414.36 1453.8 414.36C1454.12 414.36 1454.39 414.295 1454.61 414.165C1454.83 414.035 1455.02 413.861 1455.19 413.643L1455.74 414.077C1455.62 414.25 1455.48 414.414 1455.3 414.57C1455.13 414.727 1454.91 414.854 1454.65 414.951C1454.4 415.049 1454.1 415.098 1453.75 415.098ZM1457.47 409.717L1458.63 411.641L1459.8 409.717H1460.86L1459.13 412.324L1460.91 415H1459.87L1458.65 413.018L1457.43 415H1456.38L1458.15 412.324L1456.43 409.717H1457.47ZM1464.03 409.717V410.41H1461.18V409.717H1464.03ZM1462.14 408.433H1463.05V413.691C1463.05 413.87 1463.07 414.006 1463.13 414.097C1463.19 414.188 1463.26 414.248 1463.34 414.277C1463.43 414.307 1463.53 414.321 1463.63 414.321C1463.7 414.321 1463.78 414.315 1463.86 414.302C1463.95 414.285 1464.01 414.272 1464.05 414.263L1464.06 415C1463.99 415.023 1463.89 415.044 1463.77 415.063C1463.66 415.086 1463.52 415.098 1463.36 415.098C1463.14 415.098 1462.93 415.054 1462.75 414.966C1462.56 414.878 1462.42 414.731 1462.3 414.526C1462.2 414.318 1462.14 414.038 1462.14 413.687V408.433Z" fill="#A3A3A3"/>
<path d="M15.5924 397.879V398.963C15.5924 399.546 15.5403 400.037 15.4361 400.438C15.3319 400.838 15.1822 401.16 14.9869 401.404C14.7916 401.648 14.5556 401.826 14.2789 401.937C14.0054 402.044 13.6962 402.098 13.3511 402.098C13.0777 402.098 12.8254 402.063 12.5943 401.995C12.3632 401.927 12.1549 401.818 11.9693 401.668C11.787 401.515 11.6308 401.316 11.5006 401.072C11.3704 400.828 11.2711 400.532 11.2027 400.184C11.1344 399.835 11.1002 399.428 11.1002 398.963V397.879C11.1002 397.296 11.1523 396.808 11.2564 396.414C11.3638 396.02 11.5152 395.704 11.7105 395.467C11.9058 395.226 12.1402 395.053 12.4136 394.949C12.6903 394.845 12.9996 394.793 13.3414 394.793C13.6181 394.793 13.872 394.827 14.1031 394.896C14.3375 394.961 14.5458 395.066 14.7281 395.213C14.9104 395.356 15.065 395.548 15.192 395.789C15.3222 396.027 15.4215 396.318 15.4898 396.663C15.5582 397.008 15.5924 397.413 15.5924 397.879ZM14.6842 399.109V397.728C14.6842 397.409 14.6646 397.129 14.6256 396.888C14.5898 396.644 14.536 396.435 14.4644 396.263C14.3928 396.09 14.3017 395.95 14.191 395.843C14.0836 395.735 13.9582 395.657 13.815 395.608C13.675 395.556 13.5172 395.53 13.3414 395.53C13.1265 395.53 12.9361 395.571 12.7701 395.652C12.6041 395.73 12.4641 395.856 12.3502 396.028C12.2395 396.201 12.1549 396.427 12.0963 396.707C12.0377 396.987 12.0084 397.327 12.0084 397.728V399.109C12.0084 399.428 12.0263 399.71 12.0621 399.954C12.1011 400.198 12.1581 400.41 12.233 400.589C12.3079 400.765 12.399 400.91 12.5064 401.023C12.6138 401.137 12.7375 401.222 12.8775 401.277C13.0207 401.329 13.1786 401.355 13.3511 401.355C13.5725 401.355 13.7662 401.313 13.9322 401.229C14.0982 401.144 14.2366 401.012 14.3472 400.833C14.4612 400.651 14.5458 400.418 14.6011 400.135C14.6565 399.848 14.6842 399.507 14.6842 399.109Z" fill="#A3A3A3"/>
<path d="M10.1623 322.258V323H5.50894V322.351L7.83804 319.758C8.1245 319.439 8.34585 319.169 8.5021 318.947C8.66161 318.723 8.77228 318.522 8.83413 318.347C8.89924 318.168 8.93179 317.985 8.93179 317.8C8.93179 317.565 8.88296 317.354 8.7853 317.165C8.6909 316.973 8.55093 316.82 8.36538 316.706C8.17984 316.592 7.95523 316.535 7.69155 316.535C7.3758 316.535 7.11213 316.597 6.90054 316.721C6.69221 316.841 6.53596 317.01 6.43179 317.229C6.32762 317.447 6.27554 317.697 6.27554 317.98H5.37222C5.37222 317.58 5.46011 317.214 5.63589 316.882C5.81167 316.55 6.07209 316.286 6.41714 316.091C6.76219 315.892 7.187 315.793 7.69155 315.793C8.14077 315.793 8.52489 315.873 8.8439 316.032C9.16291 316.188 9.40705 316.41 9.57632 316.696C9.74885 316.979 9.83511 317.312 9.83511 317.692C9.83511 317.901 9.7993 318.112 9.72769 318.327C9.65933 318.539 9.5633 318.75 9.4396 318.962C9.31916 319.174 9.17756 319.382 9.0148 319.587C8.85529 319.792 8.68439 319.994 8.5021 320.192L6.5978 322.258H10.1623ZM15.5919 318.879V319.963C15.5919 320.546 15.5399 321.037 15.4357 321.438C15.3315 321.838 15.1818 322.16 14.9865 322.404C14.7912 322.648 14.5552 322.826 14.2785 322.937C14.005 323.044 13.6958 323.098 13.3507 323.098C13.0773 323.098 12.825 323.063 12.5939 322.995C12.3628 322.927 12.1544 322.818 11.9689 322.668C11.7866 322.515 11.6304 322.316 11.5001 322.072C11.3699 321.828 11.2707 321.532 11.2023 321.184C11.1339 320.835 11.0998 320.428 11.0998 319.963V318.879C11.0998 318.296 11.1518 317.808 11.256 317.414C11.3634 317.02 11.5148 316.704 11.7101 316.467C11.9054 316.226 12.1398 316.053 12.4132 315.949C12.6899 315.845 12.9992 315.793 13.341 315.793C13.6177 315.793 13.8716 315.827 14.1027 315.896C14.3371 315.961 14.5454 316.066 14.7277 316.213C14.91 316.356 15.0646 316.548 15.1916 316.789C15.3218 317.027 15.421 317.318 15.4894 317.663C15.5578 318.008 15.5919 318.413 15.5919 318.879ZM14.6837 320.109V318.728C14.6837 318.409 14.6642 318.129 14.6251 317.888C14.5893 317.644 14.5356 317.435 14.464 317.263C14.3924 317.09 14.3013 316.95 14.1906 316.843C14.0832 316.735 13.9578 316.657 13.8146 316.608C13.6746 316.556 13.5167 316.53 13.341 316.53C13.1261 316.53 12.9357 316.571 12.7697 316.652C12.6037 316.73 12.4637 316.856 12.3498 317.028C12.2391 317.201 12.1544 317.427 12.0959 317.707C12.0373 317.987 12.008 318.327 12.008 318.728V320.109C12.008 320.428 12.0259 320.71 12.0617 320.954C12.1007 321.198 12.1577 321.41 12.2326 321.589C12.3074 321.765 12.3986 321.91 12.506 322.023C12.6134 322.137 12.7371 322.222 12.8771 322.277C13.0203 322.329 13.1782 322.355 13.3507 322.355C13.5721 322.355 13.7658 322.313 13.9318 322.229C14.0978 322.144 14.2362 322.012 14.3468 321.833C14.4608 321.651 14.5454 321.418 14.6007 321.135C14.6561 320.848 14.6837 320.507 14.6837 320.109Z" fill="#A3A3A3"/>
<path d="M10.3087 241.607V242.35H5.17202V241.817L8.35562 236.891H9.09292L8.30191 238.316L6.19741 241.607H10.3087ZM9.31753 236.891V244H8.41421V236.891H9.31753ZM15.5919 239.879V240.963C15.5919 241.546 15.5399 242.037 15.4357 242.438C15.3315 242.838 15.1818 243.16 14.9865 243.404C14.7912 243.648 14.5552 243.826 14.2785 243.937C14.005 244.044 13.6958 244.098 13.3507 244.098C13.0773 244.098 12.825 244.063 12.5939 243.995C12.3628 243.927 12.1544 243.818 11.9689 243.668C11.7866 243.515 11.6304 243.316 11.5001 243.072C11.3699 242.828 11.2707 242.532 11.2023 242.184C11.1339 241.835 11.0998 241.428 11.0998 240.963V239.879C11.0998 239.296 11.1518 238.808 11.256 238.414C11.3634 238.02 11.5148 237.704 11.7101 237.467C11.9054 237.226 12.1398 237.053 12.4132 236.949C12.6899 236.845 12.9992 236.793 13.341 236.793C13.6177 236.793 13.8716 236.827 14.1027 236.896C14.3371 236.961 14.5454 237.066 14.7277 237.213C14.91 237.356 15.0646 237.548 15.1916 237.789C15.3218 238.027 15.421 238.318 15.4894 238.663C15.5578 239.008 15.5919 239.413 15.5919 239.879ZM14.6837 241.109V239.728C14.6837 239.409 14.6642 239.129 14.6251 238.888C14.5893 238.644 14.5356 238.435 14.464 238.263C14.3924 238.09 14.3013 237.95 14.1906 237.843C14.0832 237.735 13.9578 237.657 13.8146 237.608C13.6746 237.556 13.5167 237.53 13.341 237.53C13.1261 237.53 12.9357 237.571 12.7697 237.652C12.6037 237.73 12.4637 237.856 12.3498 238.028C12.2391 238.201 12.1544 238.427 12.0959 238.707C12.0373 238.987 12.008 239.327 12.008 239.728V241.109C12.008 241.428 12.0259 241.71 12.0617 241.954C12.1007 242.198 12.1577 242.41 12.2326 242.589C12.3074 242.765 12.3986 242.91 12.506 243.023C12.6134 243.137 12.7371 243.222 12.8771 243.277C13.0203 243.329 13.1782 243.355 13.3507 243.355C13.5721 243.355 13.7658 243.313 13.9318 243.229C14.0978 243.144 14.2362 243.012 14.3468 242.833C14.4608 242.651 14.5454 242.418 14.6007 242.135C14.6561 241.848 14.6837 241.507 14.6837 241.109Z" fill="#A3A3A3"/>
<path d="M8.97085 158.881H9.04898V159.647H8.97085C8.49234 159.647 8.09194 159.726 7.76968 159.882C7.44741 160.035 7.19188 160.242 7.00308 160.502C6.81428 160.759 6.67756 161.049 6.59292 161.371C6.51154 161.693 6.47085 162.021 6.47085 162.353V163.397C6.47085 163.713 6.50829 163.993 6.58316 164.237C6.65803 164.478 6.76056 164.682 6.89077 164.848C7.02098 165.014 7.16747 165.139 7.33023 165.224C7.49624 165.308 7.66877 165.351 7.8478 165.351C8.05614 165.351 8.24168 165.312 8.40444 165.233C8.56721 165.152 8.70392 165.04 8.8146 164.896C8.92853 164.75 9.0148 164.577 9.07339 164.379C9.13198 164.18 9.16128 163.962 9.16128 163.725C9.16128 163.513 9.13524 163.31 9.08316 163.114C9.03107 162.916 8.95132 162.74 8.8439 162.587C8.73648 162.431 8.60138 162.309 8.43862 162.221C8.27912 162.13 8.08869 162.084 7.86734 162.084C7.61668 162.084 7.38231 162.146 7.16421 162.27C6.94937 162.39 6.77196 162.549 6.63198 162.748C6.49527 162.943 6.41714 163.157 6.39761 163.388L5.91909 163.383C5.96467 163.018 6.0493 162.707 6.173 162.45C6.29995 162.19 6.4562 161.978 6.64175 161.815C6.83055 161.649 7.04051 161.529 7.27163 161.454C7.50601 161.376 7.7534 161.337 8.01382 161.337C8.36864 161.337 8.67463 161.404 8.93179 161.537C9.18895 161.671 9.40054 161.85 9.56655 162.074C9.73257 162.296 9.85464 162.546 9.93277 162.826C10.0141 163.103 10.0548 163.388 10.0548 163.681C10.0548 164.016 10.0076 164.33 9.91323 164.623C9.81883 164.916 9.67723 165.173 9.48843 165.395C9.30288 165.616 9.07339 165.788 8.79995 165.912C8.52652 166.036 8.20913 166.098 7.8478 166.098C7.46369 166.098 7.1284 166.02 6.84194 165.863C6.55549 165.704 6.31786 165.492 6.12905 165.229C5.94025 164.965 5.79865 164.672 5.70425 164.35C5.60985 164.027 5.56265 163.7 5.56265 163.368V162.943C5.56265 162.442 5.6131 161.951 5.71402 161.469C5.81493 160.987 5.98908 160.551 6.23648 160.16C6.48713 159.77 6.83381 159.459 7.27652 159.228C7.71922 158.996 8.284 158.881 8.97085 158.881ZM15.5919 161.879V162.963C15.5919 163.546 15.5399 164.037 15.4357 164.438C15.3315 164.838 15.1818 165.16 14.9865 165.404C14.7912 165.648 14.5552 165.826 14.2785 165.937C14.005 166.044 13.6958 166.098 13.3507 166.098C13.0773 166.098 12.825 166.063 12.5939 165.995C12.3628 165.927 12.1544 165.818 11.9689 165.668C11.7866 165.515 11.6304 165.316 11.5001 165.072C11.3699 164.828 11.2707 164.532 11.2023 164.184C11.1339 163.835 11.0998 163.428 11.0998 162.963V161.879C11.0998 161.296 11.1518 160.808 11.256 160.414C11.3634 160.02 11.5148 159.704 11.7101 159.467C11.9054 159.226 12.1398 159.053 12.4132 158.949C12.6899 158.845 12.9992 158.793 13.341 158.793C13.6177 158.793 13.8716 158.827 14.1027 158.896C14.3371 158.961 14.5454 159.066 14.7277 159.213C14.91 159.356 15.0646 159.548 15.1916 159.789C15.3218 160.027 15.421 160.318 15.4894 160.663C15.5578 161.008 15.5919 161.413 15.5919 161.879ZM14.6837 163.109V161.728C14.6837 161.409 14.6642 161.129 14.6251 160.888C14.5893 160.644 14.5356 160.435 14.464 160.263C14.3924 160.09 14.3013 159.95 14.1906 159.843C14.0832 159.735 13.9578 159.657 13.8146 159.608C13.6746 159.556 13.5167 159.53 13.341 159.53C13.1261 159.53 12.9357 159.571 12.7697 159.652C12.6037 159.73 12.4637 159.856 12.3498 160.028C12.2391 160.201 12.1544 160.427 12.0959 160.707C12.0373 160.987 12.008 161.327 12.008 161.728V163.109C12.008 163.428 12.0259 163.71 12.0617 163.954C12.1007 164.198 12.1577 164.41 12.2326 164.589C12.3074 164.765 12.3986 164.91 12.506 165.023C12.6134 165.137 12.7371 165.222 12.8771 165.277C13.0203 165.329 13.1782 165.355 13.3507 165.355C13.5721 165.355 13.7658 165.313 13.9318 165.229C14.0978 165.144 14.2362 165.012 14.3468 164.833C14.4608 164.651 14.5454 164.418 14.6007 164.135C14.6561 163.848 14.6837 163.507 14.6837 163.109Z" fill="#A3A3A3"/>
<path d="M9.98648 85.0762C9.98648 85.5091 9.88556 85.877 9.68374 86.1797C9.48517 86.4792 9.21499 86.707 8.87319 86.8633C8.53465 87.0195 8.15217 87.0977 7.72573 87.0977C7.2993 87.0977 6.91519 87.0195 6.57339 86.8633C6.23159 86.707 5.96141 86.4792 5.76284 86.1797C5.56428 85.877 5.46499 85.5091 5.46499 85.0762C5.46499 84.793 5.5187 84.5342 5.62612 84.2998C5.7368 84.0622 5.89142 83.8555 6.08999 83.6797C6.29181 83.5039 6.52944 83.3688 6.80288 83.2744C7.07957 83.1768 7.38394 83.1279 7.71597 83.1279C8.15217 83.1279 8.54116 83.2126 8.88296 83.3818C9.22476 83.5479 9.49331 83.7773 9.68862 84.0703C9.88719 84.3633 9.98648 84.6986 9.98648 85.0762ZM9.07827 85.0566C9.07827 84.793 9.02131 84.5602 8.90737 84.3584C8.79344 84.1533 8.63394 83.9938 8.42886 83.8799C8.22378 83.766 7.98615 83.709 7.71597 83.709C7.43928 83.709 7.20002 83.766 6.99819 83.8799C6.79963 83.9938 6.645 84.1533 6.53433 84.3584C6.42365 84.5602 6.36831 84.793 6.36831 85.0566C6.36831 85.3301 6.42202 85.5645 6.52944 85.7598C6.64012 85.9518 6.79637 86.0999 6.99819 86.2041C7.20327 86.305 7.44579 86.3555 7.72573 86.3555C8.00568 86.3555 8.24657 86.305 8.44839 86.2041C8.65021 86.0999 8.80484 85.9518 8.91226 85.7598C9.02293 85.5645 9.07827 85.3301 9.07827 85.0566ZM9.82046 81.7412C9.82046 82.0863 9.72931 82.3971 9.54702 82.6738C9.36473 82.9505 9.11571 83.1686 8.79995 83.3281C8.4842 83.4876 8.12612 83.5674 7.72573 83.5674C7.31883 83.5674 6.95588 83.4876 6.63687 83.3281C6.32111 83.1686 6.07372 82.9505 5.89468 82.6738C5.71564 82.3971 5.62612 82.0863 5.62612 81.7412C5.62612 81.3278 5.71564 80.9762 5.89468 80.6865C6.07697 80.3968 6.32599 80.1755 6.64175 80.0225C6.9575 79.8695 7.31721 79.793 7.72085 79.793C8.12775 79.793 8.48908 79.8695 8.80484 80.0225C9.12059 80.1755 9.36799 80.3968 9.54702 80.6865C9.72931 80.9762 9.82046 81.3278 9.82046 81.7412ZM8.91714 81.7559C8.91714 81.5182 8.86668 81.3083 8.76577 81.126C8.66486 80.9437 8.52489 80.8005 8.34585 80.6963C8.16681 80.5889 7.95848 80.5352 7.72085 80.5352C7.48322 80.5352 7.27489 80.5856 7.09585 80.6865C6.92007 80.7842 6.78172 80.9242 6.68081 81.1064C6.58316 81.2887 6.53433 81.5052 6.53433 81.7559C6.53433 82 6.58316 82.2132 6.68081 82.3955C6.78172 82.5778 6.9217 82.7194 7.10073 82.8203C7.27977 82.9212 7.4881 82.9717 7.72573 82.9717C7.96336 82.9717 8.17007 82.9212 8.34585 82.8203C8.52489 82.7194 8.66486 82.5778 8.76577 82.3955C8.86668 82.2132 8.91714 82 8.91714 81.7559ZM15.5919 82.8789V83.9629C15.5919 84.5456 15.5399 85.0371 15.4357 85.4375C15.3315 85.8379 15.1818 86.1602 14.9865 86.4043C14.7912 86.6484 14.5552 86.8258 14.2785 86.9365C14.005 87.0439 13.6958 87.0977 13.3507 87.0977C13.0773 87.0977 12.825 87.0635 12.5939 86.9951C12.3628 86.9268 12.1544 86.8177 11.9689 86.668C11.7866 86.515 11.6304 86.3164 11.5001 86.0723C11.3699 85.8281 11.2707 85.5319 11.2023 85.1836C11.1339 84.8353 11.0998 84.4284 11.0998 83.9629V82.8789C11.0998 82.2962 11.1518 81.8079 11.256 81.4141C11.3634 81.0202 11.5148 80.7044 11.7101 80.4668C11.9054 80.2259 12.1398 80.0534 12.4132 79.9492C12.6899 79.8451 12.9992 79.793 13.341 79.793C13.6177 79.793 13.8716 79.8271 14.1027 79.8955C14.3371 79.9606 14.5454 80.0664 14.7277 80.2129C14.91 80.3561 15.0646 80.5482 15.1916 80.7891C15.3218 81.0267 15.421 81.318 15.4894 81.6631C15.5578 82.0081 15.5919 82.4134 15.5919 82.8789ZM14.6837 84.1094V82.7275C14.6837 82.4085 14.6642 82.1286 14.6251 81.8877C14.5893 81.6436 14.5356 81.4352 14.464 81.2627C14.3924 81.0902 14.3013 80.9502 14.1906 80.8428C14.0832 80.7354 13.9578 80.6572 13.8146 80.6084C13.6746 80.5563 13.5167 80.5303 13.341 80.5303C13.1261 80.5303 12.9357 80.571 12.7697 80.6523C12.6037 80.7305 12.4637 80.8558 12.3498 81.0283C12.2391 81.2008 12.1544 81.4271 12.0959 81.707C12.0373 81.987 12.008 82.3271 12.008 82.7275V84.1094C12.008 84.4284 12.0259 84.71 12.0617 84.9541C12.1007 85.1982 12.1577 85.4098 12.2326 85.5889C12.3074 85.7646 12.3986 85.9095 12.506 86.0234C12.6134 86.1374 12.7371 86.222 12.8771 86.2773C13.0203 86.3294 13.1782 86.3555 13.3507 86.3555C13.5721 86.3555 13.7658 86.3132 13.9318 86.2285C14.0978 86.1439 14.2362 86.012 14.3468 85.833C14.4608 85.6507 14.5454 85.418 14.6007 85.1348C14.6561 84.8483 14.6837 84.5065 14.6837 84.1094Z" fill="#A3A3A3"/>
<path d="M8.47278 1.85156V9H7.56946V2.97949L5.74817 3.64355V2.82812L8.33118 1.85156H8.47278ZM15.5919 4.87891V5.96289C15.5919 6.54557 15.5398 7.03711 15.4357 7.4375C15.3315 7.83789 15.1818 8.16016 14.9865 8.4043C14.7911 8.64844 14.5551 8.82585 14.2784 8.93652C14.005 9.04395 13.6958 9.09766 13.3507 9.09766C13.0773 9.09766 12.825 9.06348 12.5939 8.99512C12.3628 8.92676 12.1544 8.81771 11.9689 8.66797C11.7866 8.51497 11.6303 8.31641 11.5001 8.07227C11.3699 7.82812 11.2706 7.5319 11.2023 7.18359C11.1339 6.83529 11.0997 6.42839 11.0997 5.96289V4.87891C11.0997 4.29622 11.1518 3.80794 11.256 3.41406C11.3634 3.02018 11.5148 2.70443 11.7101 2.4668C11.9054 2.22591 12.1398 2.05339 12.4132 1.94922C12.6899 1.84505 12.9991 1.79297 13.3409 1.79297C13.6176 1.79297 13.8715 1.82715 14.1027 1.89551C14.337 1.96061 14.5454 2.06641 14.7277 2.21289C14.91 2.35612 15.0646 2.54818 15.1915 2.78906C15.3217 3.02669 15.421 3.31803 15.4894 3.66309C15.5577 4.00814 15.5919 4.41341 15.5919 4.87891ZM14.6837 6.10938V4.72754C14.6837 4.40853 14.6642 4.12858 14.6251 3.8877C14.5893 3.64355 14.5356 3.43522 14.464 3.2627C14.3924 3.09017 14.3012 2.9502 14.1906 2.84277C14.0831 2.73535 13.9578 2.65723 13.8146 2.6084C13.6746 2.55632 13.5167 2.53027 13.3409 2.53027C13.1261 2.53027 12.9357 2.57096 12.7697 2.65234C12.6036 2.73047 12.4637 2.85579 12.3497 3.02832C12.2391 3.20085 12.1544 3.42708 12.0958 3.70703C12.0372 3.98698 12.0079 4.32715 12.0079 4.72754V6.10938C12.0079 6.42839 12.0258 6.70996 12.0616 6.9541C12.1007 7.19824 12.1577 7.40983 12.2325 7.58887C12.3074 7.76465 12.3986 7.90951 12.506 8.02344C12.6134 8.13737 12.7371 8.22201 12.8771 8.27734C13.0203 8.32943 13.1782 8.35547 13.3507 8.35547C13.5721 8.35547 13.7658 8.31315 13.9318 8.22852C14.0978 8.14388 14.2361 8.01204 14.3468 7.83301C14.4607 7.65072 14.5454 7.41797 14.6007 7.13477C14.6561 6.84831 14.6837 6.50651 14.6837 6.10938ZM15.5919 16.8789V17.9629C15.5919 18.5456 15.5398 19.0371 15.4357 19.4375C15.3315 19.8379 15.1818 20.1602 14.9865 20.4043C14.7911 20.6484 14.5551 20.8258 14.2784 20.9365C14.005 21.0439 13.6958 21.0977 13.3507 21.0977C13.0773 21.0977 12.825 21.0635 12.5939 20.9951C12.3628 20.9268 12.1544 20.8177 11.9689 20.668C11.7866 20.515 11.6303 20.3164 11.5001 20.0723C11.3699 19.8281 11.2706 19.5319 11.2023 19.1836C11.1339 18.8353 11.0997 18.4284 11.0997 17.9629V16.8789C11.0997 16.2962 11.1518 15.8079 11.256 15.4141C11.3634 15.0202 11.5148 14.7044 11.7101 14.4668C11.9054 14.2259 12.1398 14.0534 12.4132 13.9492C12.6899 13.8451 12.9991 13.793 13.3409 13.793C13.6176 13.793 13.8715 13.8271 14.1027 13.8955C14.337 13.9606 14.5454 14.0664 14.7277 14.2129C14.91 14.3561 15.0646 14.5482 15.1915 14.7891C15.3217 15.0267 15.421 15.318 15.4894 15.6631C15.5577 16.0081 15.5919 16.4134 15.5919 16.8789ZM14.6837 18.1094V16.7275C14.6837 16.4085 14.6642 16.1286 14.6251 15.8877C14.5893 15.6436 14.5356 15.4352 14.464 15.2627C14.3924 15.0902 14.3012 14.9502 14.1906 14.8428C14.0831 14.7354 13.9578 14.6572 13.8146 14.6084C13.6746 14.5563 13.5167 14.5303 13.3409 14.5303C13.1261 14.5303 12.9357 14.571 12.7697 14.6523C12.6036 14.7305 12.4637 14.8558 12.3497 15.0283C12.2391 15.2008 12.1544 15.4271 12.0958 15.707C12.0372 15.987 12.0079 16.3271 12.0079 16.7275V18.1094C12.0079 18.4284 12.0258 18.71 12.0616 18.9541C12.1007 19.1982 12.1577 19.4098 12.2325 19.5889C12.3074 19.7646 12.3986 19.9095 12.506 20.0234C12.6134 20.1374 12.7371 20.222 12.8771 20.2773C13.0203 20.3294 13.1782 20.3555 13.3507 20.3555C13.5721 20.3555 13.7658 20.3132 13.9318 20.2285C14.0978 20.1439 14.2361 20.012 14.3468 19.833C14.4607 19.6507 14.5454 19.418 14.6007 19.1348C14.6561 18.8483 14.6837 18.5065 14.6837 18.1094Z" fill="#A3A3A3"/>
<path d="M25.6709 32.51C25.6709 32.51 121.573 60.806 185.507 126.83C249.442 192.854 281.409 362.63 345.343 362.63C409.278 362.63 441.245 138.62 505.18 138.62C569.114 138.62 601.081 154.34 665.016 197.57C728.95 240.8 760.917 354.77 824.852 354.77C888.786 354.77 920.754 298.964 984.688 248.66C1048.62 198.356 1080.59 103.25 1144.52 103.25C1208.46 103.25 1240.43 103.25 1304.36 103.25C1368.3 103.25 1464.2 331.19 1464.2 331.19" stroke="url(#paint0_linear_54_557)" stroke-width="2"/>
<path d="M25.6713 37C24.6628 37 23.6956 36.5787 22.9824 35.8288C22.2692 35.0789 21.8684 34.0617 21.8682 33.001C21.8679 31.9403 22.2682 30.9229 22.9811 30.1726C23.6939 29.4223 24.6609 29.0005 25.6694 29C26.6779 28.9995 27.6452 29.4203 28.3588 30.1698C29.0723 30.9194 29.4736 31.9363 29.4744 32.997C29.4751 34.0577 29.0753 35.0753 28.3628 35.826C27.6503 36.5766 26.6836 36.9989 25.6751 37L25.6713 37Z" fill="#A6CEE3"/>
<path d="M185.401 131C184.393 131 183.426 130.579 182.712 129.829C181.999 129.079 181.598 128.062 181.598 127.001C181.598 125.94 181.998 124.923 182.711 124.173C183.424 123.422 184.391 123.001 185.399 123C186.408 122.999 187.375 123.42 188.089 124.17C188.802 124.919 189.204 125.936 189.204 126.997C189.205 128.058 188.805 129.075 188.093 129.826C187.38 130.577 186.414 130.999 185.405 131H185.401Z" fill="#A6CEE3"/>
<path d="M345.132 367C344.124 367 343.157 366.579 342.443 365.829C341.73 365.079 341.329 364.062 341.329 363.001C341.329 361.94 341.729 360.923 342.442 360.173C343.155 359.422 344.122 359.001 345.13 359C346.139 358.999 347.106 359.42 347.82 360.17C348.533 360.919 348.935 361.936 348.935 362.997C348.936 364.058 348.536 365.075 347.824 365.826C347.111 366.577 346.144 366.999 345.136 367H345.132Z" fill="#A6CEE3"/>
<path d="M504.862 143C503.854 143 502.887 142.579 502.173 141.829C501.46 141.079 501.059 140.062 501.059 139.001C501.059 137.94 501.459 136.923 502.172 136.173C502.885 135.422 503.852 135.001 504.86 135C505.869 134.999 506.836 135.42 507.55 136.17C508.263 136.919 508.665 137.936 508.665 138.997C508.666 140.058 508.266 141.075 507.554 141.826C506.841 142.577 505.874 142.999 504.866 143H504.862Z" fill="#A6CEE3"/>
<path d="M664.593 202C663.585 202 662.617 201.579 661.904 200.829C661.191 200.079 660.79 199.062 660.79 198.001C660.79 196.94 661.19 195.923 661.903 195.173C662.616 194.422 663.583 194.001 664.591 194C665.6 193.999 666.567 194.42 667.281 195.17C667.994 195.919 668.396 196.936 668.396 197.997C668.397 199.058 667.997 200.075 667.285 200.826C666.572 201.577 665.605 201.999 664.597 202H664.593Z" fill="#A6CEE3"/>
<path d="M824.324 359C823.316 359 822.348 358.579 821.635 357.829C820.922 357.079 820.521 356.062 820.521 355.001C820.521 353.94 820.921 352.923 821.634 352.173C822.347 351.422 823.314 351.001 824.322 351C825.331 350.999 826.298 351.42 827.012 352.17C827.725 352.919 828.126 353.936 828.127 354.997C828.128 356.058 827.728 357.075 827.016 357.826C826.303 358.577 825.336 358.999 824.328 359H824.324Z" fill="#A6CEE3"/>
<path d="M984.054 253C983.046 253 982.078 252.579 981.365 251.829C980.652 251.079 980.251 250.062 980.251 249.001C980.251 247.94 980.651 246.923 981.364 246.173C982.077 245.422 983.044 245.001 984.052 245C985.061 244.999 986.028 245.42 986.742 246.17C987.455 246.919 987.856 247.936 987.857 248.997C987.858 250.058 987.458 251.075 986.746 251.826C986.033 252.577 985.066 252.999 984.058 253H984.054Z" fill="#A6CEE3"/>
<path d="M1143.79 107C1142.78 107 1141.81 106.579 1141.1 105.829C1140.38 105.079 1139.98 104.062 1139.98 103.001C1139.98 101.94 1140.38 100.923 1141.09 100.173C1141.81 99.4223 1142.77 99.0005 1143.78 99C1144.79 98.9995 1145.76 99.4203 1146.47 100.17C1147.19 100.919 1147.59 101.936 1147.59 102.997C1147.59 104.058 1147.19 105.075 1146.48 105.826C1145.76 106.577 1144.8 106.999 1143.79 107H1143.79Z" fill="#A6CEE3"/>
<path d="M1303.52 107C1302.51 107 1301.54 106.579 1300.83 105.829C1300.11 105.079 1299.71 104.062 1299.71 103.001C1299.71 101.94 1300.11 100.923 1300.83 100.173C1301.54 99.4223 1302.51 99.0005 1303.51 99C1304.52 98.9995 1305.49 99.4203 1306.2 100.17C1306.92 100.919 1307.32 101.936 1307.32 102.997C1307.32 104.058 1306.92 105.075 1306.21 105.826C1305.49 106.577 1304.53 106.999 1303.52 107H1303.52Z" fill="#A6CEE3"/>
<path d="M1464.2 335C1463.19 335 1462.22 334.579 1461.51 333.829C1460.8 333.079 1460.39 332.062 1460.39 331.001C1460.39 329.94 1460.79 328.923 1461.51 328.173C1462.22 327.422 1463.19 327.001 1464.2 327C1465.2 326.999 1466.17 327.42 1466.88 328.17C1467.6 328.919 1468 329.936 1468 330.997C1468 332.058 1467.6 333.075 1466.89 333.826C1466.18 334.577 1465.21 334.999 1464.2 335H1464.2Z" fill="#A6CEE3"/>
<defs>
<linearGradient id="paint0_linear_54_557" x1="134.926" y1="197.568" x2="1321.37" y2="197.568" gradientUnits="userSpaceOnUse">
<stop stop-color="#EAAEFF"/>
<stop offset="0.421875" stop-color="#D1ADFF"/>
<stop offset="0.760417" stop-color="#A9D6FF"/>
<stop offset="1" stop-color="white"/>
<stop offset="1" stop-color="white" stop-opacity="0"/>
</linearGradient>
</defs>
</svg>
