<svg width="44" height="43" viewBox="0 0 44 43" fill="none" xmlns="http://www.w3.org/2000/svg">
<path fill-rule="evenodd" clip-rule="evenodd" d="M5.44119e-07 3.59246C5.44119e-07 2.63968 0.387292 1.72593 1.07668 1.05221C1.76606 0.378494 2.70106 4.78925e-06 3.676 4.78925e-06H40.32C40.8031 -0.00076638 41.2817 0.0916005 41.7283 0.271817C42.1749 0.452033 42.5807 0.71656 42.9225 1.05025C43.2643 1.38395 43.5354 1.78025 43.7203 2.21648C43.9052 2.65271 44.0003 3.12029 44 3.59246V39.4036C44.0005 39.8759 43.9058 40.3436 43.7211 40.7801C43.5365 41.2165 43.2656 41.6131 42.924 41.9471C42.5824 42.2811 42.1768 42.5461 41.7303 42.7267C41.2838 42.9074 40.8052 43.0003 40.322 43H3.676C3.19309 43 2.71492 42.907 2.26879 42.7264C1.82267 42.5457 1.41734 42.2809 1.07597 41.9471C0.734594 41.6133 0.463864 41.217 0.279245 40.781C0.0946265 40.3449 -0.000262191 39.8775 5.44119e-07 39.4056V3.59246ZM17.416 16.3947H23.374V19.3187C24.234 17.6378 26.434 16.125 29.74 16.125C36.078 16.125 37.58 19.4731 37.58 25.6163V36.9956H31.166V27.0157C31.166 23.5171 30.306 21.543 28.122 21.543C25.092 21.543 23.832 23.6715 23.832 27.0157V36.9956H17.416V16.3947ZM6.416 36.7279H12.832V16.125H6.416V36.7259V36.7279ZM13.75 9.40528C13.7621 9.94214 13.6643 10.476 13.4625 10.9754C13.2606 11.4748 12.9587 11.9298 12.5745 12.3137C12.1902 12.6976 11.7314 13.0026 11.2249 13.2108C10.7184 13.419 10.1745 13.5263 9.625 13.5263C9.07552 13.5263 8.53158 13.419 8.02509 13.2108C7.5186 13.0026 7.05978 12.6976 6.67554 12.3137C6.2913 11.9298 5.98939 11.4748 5.78752 10.9754C5.58566 10.476 5.4879 9.94214 5.5 9.40528C5.52374 8.35149 5.96877 7.34869 6.73977 6.61162C7.51077 5.87455 8.54645 5.46182 9.625 5.46182C10.7036 5.46182 11.7392 5.87455 12.5102 6.61162C13.2812 7.34869 13.7263 8.35149 13.75 9.40528Z" fill="url(#paint0_linear_46_515)"/>
<defs>
<linearGradient id="paint0_linear_46_515" x1="3.34177" y1="21.4998" x2="39.6313" y2="21.4998" gradientUnits="userSpaceOnUse">
<stop stop-color="#EAAEFF"/>
<stop offset="0.421875" stop-color="#D1ADFF"/>
<stop offset="0.760417" stop-color="#A9D6FF"/>
<stop offset="1" stop-color="white"/>
<stop offset="1" stop-color="white" stop-opacity="0"/>
</linearGradient>
</defs>
</svg>
