<svg width="23" height="23" viewBox="0 0 23 23" fill="none" xmlns="http://www.w3.org/2000/svg">
<path d="M22.6222 20.8083L18.2791 16.478C19.6804 14.6928 20.4407 12.4884 20.4379 10.2189C20.4379 8.19782 19.8385 6.22209 18.7157 4.5416C17.5928 2.86111 15.9968 1.55132 14.1295 0.777874C12.2623 0.00442767 10.2076 -0.197941 8.22532 0.196358C6.24304 0.590658 4.4222 1.56392 2.99306 2.99306C1.56392 4.4222 0.590658 6.24304 0.196358 8.22532C-0.197941 10.2076 0.00442767 12.2623 0.777874 14.1295C1.55132 15.9968 2.86111 17.5928 4.5416 18.7157C6.22209 19.8385 8.19782 20.4379 10.2189 20.4379C12.4884 20.4407 14.6928 19.6804 16.478 18.2791L20.8083 22.6222C20.927 22.7419 21.0683 22.8369 21.224 22.9018C21.3796 22.9666 21.5466 23 21.7152 23C21.8839 23 22.0508 22.9666 22.2065 22.9018C22.3621 22.8369 22.5034 22.7419 22.6222 22.6222C22.7419 22.5034 22.8369 22.3621 22.9018 22.2065C22.9666 22.0508 23 21.8839 23 21.7152C23 21.5466 22.9666 21.3796 22.9018 21.224C22.8369 21.0683 22.7419 20.927 22.6222 20.8083ZM2.55474 10.2189C2.55474 8.7031 3.00423 7.2213 3.84639 5.96093C4.68854 4.70056 5.88552 3.71822 7.28597 3.13814C8.68642 2.55805 10.2274 2.40628 11.7141 2.702C13.2009 2.99773 14.5665 3.72767 15.6383 4.79953C16.7102 5.87139 17.4401 7.23701 17.7359 8.72372C18.0316 10.2104 17.8798 11.7514 17.2997 13.1519C16.7196 14.5523 15.7373 15.7493 14.4769 16.5915C13.2166 17.4336 11.7348 17.8831 10.2189 17.8831C8.18626 17.8831 6.23684 17.0757 4.79953 15.6383C3.36221 14.201 2.55474 12.2516 2.55474 10.2189Z" fill="#F7E1FF" fill-opacity="0.5"/>
</svg>
