<svg width="40" height="44" viewBox="0 0 40 44" fill="none" xmlns="http://www.w3.org/2000/svg">
<path d="M9.16667 43.6668H30.8333C31.3547 43.6669 31.8586 43.479 32.2526 43.1375C32.6466 42.796 32.9043 42.3239 32.9783 41.8078L37.0452 13.3335H39.5V9.00016H36.5057L32.7703 1.53166C32.5909 1.1715 32.3146 0.868551 31.9724 0.656878C31.6302 0.445206 31.2357 0.333213 30.8333 0.333497H9.16667C8.3455 0.333497 7.59583 0.797163 7.2275 1.53166L3.49433 9.00016H0.5V13.3335H2.95483L7.02167 41.8078C7.0957 42.3239 7.35336 42.796 7.74736 43.1375C8.14136 43.479 8.64529 43.6669 9.16667 43.6668ZM31.739 19.8335H8.261L7.3315 13.3335H32.6663L31.739 19.8335ZM11.0452 39.3335L10.1157 32.8335H29.8822L28.9527 39.3335H11.0452ZM10.5057 4.66683H29.4943L31.661 9.00016H8.339L10.5057 4.66683Z" fill="url(#paint0_linear_54_635)"/>
<defs>
<linearGradient id="paint0_linear_54_635" x1="3.46203" y1="21.9999" x2="35.6278" y2="21.9999" gradientUnits="userSpaceOnUse">
<stop stop-color="#EAAEFF"/>
<stop offset="0.421875" stop-color="#D1ADFF"/>
<stop offset="0.760417" stop-color="#A9D6FF"/>
<stop offset="1" stop-color="white"/>
<stop offset="1" stop-color="white" stop-opacity="0"/>
</linearGradient>
</defs>
</svg>
