<svg width="34" height="30" viewBox="0 0 34 30" fill="none" xmlns="http://www.w3.org/2000/svg">
<path d="M33.4004 4.61843C33.3315 4.45255 33.2154 4.31062 33.0663 4.21038C32.9173 4.11013 32.7421 4.056 32.5625 4.05475H27.7484C27.1534 2.96188 26.2781 2.04715 25.2125 1.40457C24.1469 0.761989 22.9294 0.414739 21.6852 0.398504C19.8156 0.390377 18.019 1.12318 16.6885 2.43655C15.3581 3.74991 14.602 5.53686 14.5859 7.40632V8.73171C8.12656 7.19304 2.79452 1.93718 2.73359 1.89147C2.61614 1.77553 2.46949 1.69355 2.30921 1.65423C2.14893 1.61491 1.981 1.61972 1.82323 1.66814C1.66546 1.71657 1.52374 1.8068 1.41312 1.92927C1.3025 2.05174 1.22709 2.20187 1.19491 2.36374C-0.130476 9.6153 2.04804 14.4598 4.10468 17.2477C5.19546 18.7405 6.53539 20.034 8.06562 21.0716C5.70429 23.9356 1.81952 25.4286 1.77382 25.4438C1.64403 25.4916 1.52701 25.5687 1.43189 25.6691C1.33676 25.7695 1.26609 25.8905 1.22538 26.0227C1.18215 26.1517 1.16929 26.2889 1.18778 26.4237C1.20628 26.5584 1.25564 26.6871 1.33202 26.7997C1.48437 27.0282 2.97734 29.0391 8.18749 29.0391C18.8059 29.0391 27.6875 20.8278 28.5406 10.2856L33.2023 5.60866C33.3345 5.48486 33.4246 5.32285 33.4601 5.14529C33.4956 4.96774 33.4747 4.78353 33.4004 4.61843ZM27.0019 9.23444C26.8435 9.39253 26.7509 9.60488 26.743 9.82858C26.1184 19.5786 17.968 27.211 8.18749 27.211C6.06992 27.211 4.71406 26.8454 3.90663 26.4798C5.62812 25.6114 8.44648 23.9051 10.168 21.3153C10.2365 21.2079 10.2827 21.0878 10.3036 20.9621C10.3246 20.8365 10.3199 20.7079 10.2898 20.5841C10.2574 20.4574 10.1985 20.339 10.1171 20.2366C10.0357 20.1342 9.93367 20.0501 9.81757 19.9899C9.7871 19.9899 7.50195 18.8016 5.52148 16.0899C3.16015 12.8602 2.23085 8.91452 2.74882 4.35944C4.97304 6.2485 9.77187 9.81335 15.3477 10.7426C15.4789 10.7676 15.614 10.7629 15.7432 10.7291C15.8725 10.6952 15.9925 10.633 16.0946 10.5469C16.1968 10.4608 16.2784 10.353 16.3337 10.2314C16.389 10.1098 16.4164 9.97738 16.4141 9.84382V7.40632C16.4261 6.02575 16.9841 4.70606 17.966 3.73554C18.9479 2.76502 20.2741 2.22255 21.6547 2.22663C22.6523 2.24103 23.6247 2.54155 24.4565 3.09247C25.2883 3.64339 25.9444 4.42154 26.3469 5.33444C26.4164 5.49866 26.5332 5.6385 26.6824 5.73616C26.8316 5.83382 27.0064 5.88489 27.1848 5.88288H30.3535L27.0019 9.23444Z" fill="white" fill-opacity="0.6"/>
</svg>
