<svg width="70" height="70" viewBox="0 0 70 70" fill="none" xmlns="http://www.w3.org/2000/svg">
<circle cx="35" cy="35" r="34" fill="#171717" stroke="url(#paint0_linear_243_184)" stroke-width="2"/>
<path d="M51.6105 25.22C51.5417 25.0541 51.4255 24.9122 51.2765 24.8119C51.1275 24.7117 50.9522 24.6576 50.7726 24.6563H45.9586C45.3636 23.5634 44.4883 22.6487 43.4227 22.0061C42.357 21.3636 41.1396 21.0163 39.8953 21.0001C38.0258 20.9919 36.2292 21.7247 34.8987 23.0381C33.5682 24.3515 32.8122 26.1384 32.7961 28.0079V29.3333C26.3367 27.7946 21.0047 22.5387 20.9437 22.493C20.8263 22.3771 20.6796 22.2951 20.5194 22.2558C20.3591 22.2165 20.1911 22.2213 20.0334 22.2697C19.8756 22.3181 19.7339 22.4084 19.6233 22.5308C19.5126 22.6533 19.4372 22.8034 19.4051 22.9653C18.0797 30.2169 20.2582 35.0614 22.3148 37.8493C23.4056 39.342 24.7455 40.6356 26.2758 41.6731C23.9144 44.5372 20.0297 46.0301 19.984 46.0454C19.8542 46.0932 19.7372 46.1703 19.642 46.2707C19.5469 46.3711 19.4762 46.4921 19.4355 46.6243C19.3923 46.7533 19.3794 46.8905 19.3979 47.0252C19.4164 47.16 19.4658 47.2887 19.5422 47.4012C19.6945 47.6298 21.1875 49.6407 26.3976 49.6407C37.016 49.6407 45.8976 41.4294 46.7508 30.8872L51.4125 26.2102C51.5446 26.0864 51.6347 25.9244 51.6703 25.7469C51.7058 25.5693 51.6849 25.3851 51.6105 25.22ZM45.2121 29.836C45.0536 29.9941 44.9611 30.2064 44.9531 30.4301C44.3285 40.1801 36.1781 47.8126 26.3976 47.8126C24.2801 47.8126 22.9242 47.4469 22.1168 47.0813C23.8383 46.213 26.6566 44.5067 28.3781 41.9169C28.4467 41.8095 28.4928 41.6894 28.5138 41.5637C28.5347 41.438 28.53 41.3094 28.5 41.1856C28.4675 41.0589 28.4087 40.9405 28.3273 40.8381C28.2459 40.7358 28.1438 40.6517 28.0277 40.5915C27.9972 40.5915 25.7121 39.4032 23.7316 36.6915C21.3703 33.4618 20.441 29.5161 20.959 24.961C23.1832 26.8501 27.982 30.4149 33.5578 31.3442C33.689 31.3691 33.8242 31.3645 33.9534 31.3306C34.0826 31.2968 34.2026 31.2345 34.3048 31.1484C34.4069 31.0623 34.4886 30.9546 34.5438 30.833C34.5991 30.7113 34.6265 30.5789 34.6242 30.4454V28.0079C34.6363 26.6273 35.1942 25.3076 36.1762 24.3371C37.1581 23.3666 38.4842 22.8241 39.8648 22.8282C40.8624 22.8426 41.8349 23.1431 42.6667 23.694C43.4984 24.245 44.1545 25.0231 44.557 25.936C44.6265 26.1002 44.7433 26.2401 44.8925 26.3377C45.0417 26.4354 45.2166 26.4865 45.3949 26.4844H48.5637L45.2121 29.836Z" fill="url(#paint1_linear_243_184)"/>
<defs>
<linearGradient id="paint0_linear_243_184" x1="5.31646" y1="34.9996" x2="63.0498" y2="34.9996" gradientUnits="userSpaceOnUse">
<stop stop-color="#EAAEFF"/>
<stop offset="0.421875" stop-color="#D1ADFF"/>
<stop offset="0.760417" stop-color="#A9D6FF"/>
<stop offset="1" stop-color="white"/>
<stop offset="1" stop-color="white" stop-opacity="0"/>
</linearGradient>
<linearGradient id="paint1_linear_243_184" x1="21.4826" y1="35.3202" x2="48.4417" y2="35.3202" gradientUnits="userSpaceOnUse">
<stop stop-color="#EAAEFF"/>
<stop offset="0.421875" stop-color="#D1ADFF"/>
<stop offset="0.760417" stop-color="#A9D6FF"/>
<stop offset="1" stop-color="white"/>
<stop offset="1" stop-color="white" stop-opacity="0"/>
</linearGradient>
</defs>
</svg>
