<svg width="45" height="37" viewBox="0 0 45 37" fill="none" xmlns="http://www.w3.org/2000/svg">
<path d="M45 4.38888C43.3452 5.13054 41.5674 5.63166 39.6985 5.85817C41.6269 4.69114 43.0696 2.85437 43.7574 0.690585C41.9457 1.779 39.9628 2.54513 37.8951 2.95566C36.5045 1.45403 34.6628 0.458718 32.6557 0.124263C30.6486 -0.210191 28.5885 0.134922 26.7952 1.10602C25.0019 2.07712 23.5757 3.61988 22.7381 5.49476C21.9006 7.36965 21.6984 9.47177 22.1631 11.4748C18.4921 11.2883 14.9008 10.3233 11.6224 8.64222C8.34405 6.96116 5.45177 4.60168 3.13331 1.71689C2.34057 3.09999 1.88474 4.70358 1.88474 6.41141C1.88386 7.94885 2.25819 9.46274 2.97452 10.8188C3.69086 12.1748 4.72704 13.331 5.99115 14.1848C4.52512 14.1377 3.09144 13.737 1.80943 13.0162V13.1365C1.80929 15.2928 2.54675 17.3828 3.89669 19.0517C5.24663 20.7207 7.1259 21.8659 9.21563 22.293C7.85564 22.6653 6.42981 22.7201 5.0458 22.4534C5.6354 24.3088 6.78388 25.9312 8.33046 27.0936C9.87705 28.256 11.7443 28.9002 13.6708 28.9359C10.4004 31.5326 6.36153 32.9411 2.20382 32.9349C1.46733 32.9351 0.731456 32.8916 0 32.8046C4.22031 35.5491 9.13306 37.0056 14.1504 37C31.1349 37 40.4199 22.7721 40.4199 10.4324C40.4199 10.0315 40.41 9.62662 40.3922 9.22572C42.1982 7.90471 43.7572 6.26888 44.996 4.39489L45 4.38888Z" fill="url(#paint0_linear_46_516)"/>
<defs>
<linearGradient id="paint0_linear_46_516" x1="3.41772" y1="18.4998" x2="40.532" y2="18.4998" gradientUnits="userSpaceOnUse">
<stop stop-color="#EAAEFF"/>
<stop offset="0.421875" stop-color="#D1ADFF"/>
<stop offset="0.760417" stop-color="#A9D6FF"/>
<stop offset="1" stop-color="white"/>
<stop offset="1" stop-color="white" stop-opacity="0"/>
</linearGradient>
</defs>
</svg>
